<svg xmlns="http://www.w3.org/2000/svg" xmlns:xlink="http://www.w3.org/1999/xlink" id="Layer_1" x="0" y="0" enable-background="new 0 0 120 120" version="1.1" viewBox="0 0 120 120" xml:space="preserve"><style type="text/css">.st0{fill:#1880b6}.st1,.st2{fill:#8ed9ef;stroke:#324249;stroke-width:2;stroke-linecap:round;stroke-linejoin:round}.st2{fill:#f2f0da}</style><rect id="Call_to_Action" width="120" height="120" class="st0"/><g transform="translate(4 3)"><path d="M33.7,51.2c0.6-2.4,1.5-4.6,2.7-6.6L34,41.4c-0.6-0.8-0.5-1.9,0.2-2.6l4.6-4.6c0.7-0.7,1.8-0.8,2.6-0.2 l3.2,2.4c2-1.2,4.2-2.2,6.6-2.7l0.5-4c0.1-1,1-1.7,2-1.7h6.5c1,0,1.8,0.7,2,1.7l0.5,4c2.4,0.6,4.6,1.5,6.6,2.7l3.2-2.4 c0.8-0.6,1.9-0.5,2.6,0.2l4.6,4.6c0.7,0.7,0.8,1.8,0.2,2.6l-2.4,3.2c1.2,2,2.2,4.2,2.7,6.6l4,0.5c1,0.1,1.7,1,1.7,2v6.5 c0,1-0.7,1.8-1.7,2l-4,0.5c-0.6,2.4-1.5,4.6-2.7,6.6l2.4,3.2c0.6,0.8,0.5,1.9-0.2,2.6l-4.6,4.6c-0.7,0.7-1.8,0.8-2.6,0.2l-3.2-2.4 c-2,1.2-4.2,2.2-6.6,2.7l-0.5,4c-0.1,1-1,1.7-2,1.7h-6.5c-1,0-1.8-0.7-2-1.7l-0.5-4c-2.4-0.6-4.6-1.5-6.6-2.7L41.4,80 c-0.8,0.6-1.9,0.5-2.6-0.2l-4.6-4.6c-0.7-0.7-0.8-1.8-0.2-2.6l2.4-3.2c-1.2-2-2.2-4.2-2.7-6.6l-4-0.5c-1-0.1-1.7-1-1.7-2v-6.5 c0-1,0.7-1.8,1.7-2L33.7,51.2z M57,70c7.2,0,13-5.8,13-13s-5.8-13-13-13s-13,5.8-13,13S49.8,70,57,70z" class="st1"/><circle cx="57" cy="57" r="5" class="st2"/></g></svg>