<svg xmlns="http://www.w3.org/2000/svg" xmlns:xlink="http://www.w3.org/1999/xlink" id="Layer_1" x="0" y="0" enable-background="new 0 0 120 120" version="1.1" viewBox="0 0 120 120" xml:space="preserve"><style type="text/css">.st0{fill:#1880b6}.st1,.st2{fill:#f2f0da;stroke:#324249;stroke-width:2;stroke-linecap:round;stroke-linejoin:round}.st2{fill:#8ed9ef}</style><rect id="Call_to_Action" width="120" height="120" class="st0"/><g transform="translate(5 5)"><path d="M31,28h48c1.7,0,3,1.3,3,3v48c0,1.7-1.3,3-3,3H31c-1.7,0-3-1.3-3-3V31C28,29.3,29.3,28,31,28z" class="st1"/><path d="M40,54h18 M40,62h30 M40,70h22" class="st1"/><path d="M64,28h15c1.7,0,3,1.3,3,3v11H64V28z" class="st2"/><rect width="18" height="14" x="46" y="28" class="st2"/></g></svg>