<svg xmlns="http://www.w3.org/2000/svg" xmlns:xlink="http://www.w3.org/1999/xlink" id="Layer_1" x="0" y="0" enable-background="new 0 0 120 120" version="1.1" viewBox="0 0 120 120" xml:space="preserve"><style type="text/css">.st0{fill:#1880b6}.st1,.st2{fill:#8ed9ef;stroke:#324249;stroke-width:2;stroke-linecap:round;stroke-linejoin:round}.st2{fill:#f2f0da}</style><rect id="Call_to_Action" width="120" height="120" y="0" class="st0"/><g transform="translate(4 4)"><g transform="translate(0 30)"><rect width="26" height="26" x="28" y="28" class="st1"/><path d="M54,54H28l14.6-14.6c0.8-0.8,2-0.8,2.8,0L54,48V54z" class="st2"/><circle cx="36" cy="36" r="4" class="st2"/></g><g transform="translate(30 30)"><polygon points="28 28 54 28 54 54 28 54" class="st1"/><path d="M54,54H28l14.6-14.6c0.8-0.8,2-0.8,2.8,0L54,48V54z" class="st2"/><circle cx="36" cy="36" r="4" class="st2"/></g><rect width="26" height="26" x="28" y="28" class="st1"/><path d="M54,54H28l14.6-14.6c0.8-0.8,2-0.8,2.8,0L54,48V54z" class="st2"/><circle cx="36" cy="36" r="4" class="st2"/><g transform="translate(30)"><rect width="26" height="26" x="28" y="28" class="st1"/><path d="M54,54H28l14.6-14.6c0.8-0.8,2-0.8,2.8,0L54,48V54z" class="st2"/><circle cx="36" cy="36" r="4" class="st2"/></g></g></svg>