<svg xmlns="http://www.w3.org/2000/svg" xmlns:xlink="http://www.w3.org/1999/xlink" id="Layer_1" x="0" y="0" enable-background="new 0 0 120 120" version="1.1" viewBox="0 0 120 120" xml:space="preserve"><style type="text/css">.st0{fill:#1880b6}.st1,.st2{fill:#8ed9ef;stroke:#324249;stroke-width:2;stroke-linecap:round;stroke-linejoin:round}.st2{fill:#f2f0da}</style><rect id="Call_to_Action" width="120" height="120" y="0" class="st0"/><g transform="translate(1 7)"><path d="M34,74h-3c-1.7,0-3-1.3-3-3V35c0-1.7,1.3-3,3-3h3" class="st1"/><path d="M84,32h3c1.7,0,3,1.3,3,3v36c0,1.7-1.3,3-3,3h-3" class="st1"/><path d="M37,28h44c1.7,0,3,1.3,3,3v44c0,1.7-1.3,3-3,3H37c-1.7,0-3-1.3-3-3V31C34,29.3,35.3,28,37,28z" class="st1"/><rect width="38" height="38" x="40" y="34" class="st2"/><path d="M40,50h38 M52,72V50" class="st2"/></g></svg>