<svg xmlns="http://www.w3.org/2000/svg" xmlns:xlink="http://www.w3.org/1999/xlink" id="Layer_1" x="0" y="0" enable-background="new 0 0 120 120" version="1.1" viewBox="0 0 120 120" xml:space="preserve"><style type="text/css">.st0{fill:#1880b6}.st1,.st2{fill:#8ed9ef;stroke:#324249;stroke-width:2;stroke-linecap:round;stroke-linejoin:round}.st2{fill:#f2f0da}</style><rect id="Call_to_Action" width="120" height="120" class="st0"/><g><path d="M45,57L28,40V28h12l17,17L45,57z M34,36c1.1,0,2-0.9,2-2s-0.9-2-2-2s-2,0.9-2,2S32.9,36,34,36z M78,90L61,73 V61h12l17,17L78,90z M67,69c1.1,0,2-0.9,2-2s-0.9-2-2-2s-2,0.9-2,2S65.9,69,67,69z" class="st1" transform="translate(1 1)"/><path d="M78,57L61,40V28h12l17,17L78,57z M67,36c1.1,0,2-0.9,2-2s-0.9-2-2-2s-2,0.9-2,2S65.9,36,67,36z M45,90L28,73 V61h12l17,17L45,90z M34,69c1.1,0,2-0.9,2-2s-0.9-2-2-2s-2,0.9-2,2S32.9,69,34,69z" class="st2" transform="translate(1 1)"/></g></svg>