<svg xmlns="http://www.w3.org/2000/svg" xmlns:xlink="http://www.w3.org/1999/xlink" id="Layer_1" x="0" y="0" enable-background="new 55 277 240 240" version="1.1" viewBox="55 277 240 240" xml:space="preserve"><style type="text/css">.st0{fill:#1880b6}.st1{fill:#8ed9ef}.st2{fill:#324249}.st3{opacity:.2}.st4{fill:#f2f0da}</style><rect id="Headline_1_" width="240" height="240" x="55" y="277" class="st0"/><g><g><path d="M231,333h-92c-1.9,0-4,2.4-4,4v92c0,4.4-3.6,8-8,8c-1.1,0-2-0.9-2-2s0.9-2,2-2c2.2,0,4-1.8,4-4v-52h-12 c-2.1,0-4,2.3-4,4v56c0,9.8,6.4,16,12,16h96c5.9,0,12-6,12-12V337C235,334.9,233,333,231,333z M219,389c0,2.2-1.8,4-4,4h-60 c-2.2,0-4-1.8-4-4v-24c0-2.2,1.8-4,4-4h60c2.2,0,4,1.8,4,4V389z" class="st1"/></g><g><path d="M215,361h-60c-2.2,0-4,1.8-4,4v24c0,2.2,1.8,4,4,4h60c2.2,0,4-1.8,4-4v-24C219,362.8,217.2,361,215,361z M215,389h-60v-24h60V389z" class="st2"/><path d="M231,329h-92c-4.4,0-8,3.9-8,8v36h-12c-4.2,0-8,4.1-8,8v56c0,12,7.7,20,16,20h96c8.1,0,16-8,16-16V337 C239,332.6,235.3,329,231,329z M235,441c0,6-6.1,12-12,12h-96c-5.6,0-12-6.2-12-16v-56c0-1.8,1.9-4,4-4h12v52c0,2.2-1.8,4-4,4 c-1.1,0-2,0.9-2,2c0,1.1,0.9,2,2,2c4.4,0,8-3.6,8-8v-92c0-1.6,2.1-4,4-4h92c2,0,4,1.9,4,4V441z" class="st2"/></g><g class="st3"><path d="M153,353h24c1.1,0,2-0.9,2-2c0-1.1-0.9-2-2-2h-24c-1.1,0-2,0.9-2,2C151,352.1,151.9,353,153,353z"/><path d="M153,405h36c1.1,0,2-0.9,2-2c0-1.1-0.9-2-2-2h-36c-1.1,0-2,0.9-2,2C151,404.1,151.9,405,153,405z"/><path d="M197,405h20c1.1,0,2-0.9,2-2c0-1.1-0.9-2-2-2h-20c-1.1,0-2,0.9-2,2C195,404.1,195.9,405,197,405z"/><path d="M217,425h-36c-1.1,0-2,0.9-2,2s0.9,2,2,2h36c1.1,0,2-0.9,2-2S218.1,425,217,425z"/><path d="M173,425h-20c-1.1,0-2,0.9-2,2s0.9,2,2,2h20c1.1,0,2-0.9,2-2S174.1,425,173,425z"/><path d="M153,417h12c1.1,0,2-0.9,2-2c0-1.1-0.9-2-2-2h-12c-1.1,0-2,0.9-2,2C151,416.1,151.9,417,153,417z"/><path d="M173,413c-1.1,0-2,0.9-2,2c0,1.1,0.9,2,2,2h12c1.1,0,2-0.9,2-2c0-1.1-0.9-2-2-2H173z"/><path d="M217,413h-24c-1.1,0-2,0.9-2,2c0,1.1,0.9,2,2,2h24c1.1,0,2-0.9,2-2C219,413.9,218.1,413,217,413z"/></g><rect width="60" height="24" x="155" y="365" class="st4"/></g></svg>