<?xml version="1.0" encoding="UTF-8" standalone="no"?>
<!DOCTYPE svg PUBLIC "-//W3C//DTD SVG 1.1//EN" "http://www.w3.org/Graphics/SVG/1.1/DTD/svg11.dtd">
<svg width="100%" height="100%" viewBox="0 0 500 500" version="1.1" xmlns="http://www.w3.org/2000/svg" xmlns:xlink="http://www.w3.org/1999/xlink" xml:space="preserve" xmlns:serif="http://www.serif.com/" style="fill-rule:evenodd;clip-rule:evenodd;stroke-linejoin:round;stroke-miterlimit:1.41421;">
    <rect id="Artboard1" x="0" y="0" width="500" height="500" style="fill:none;"/>
    <clipPath id="_clip1">
        <rect id="Artboard11" serif:id="Artboard1" x="0" y="0" width="500" height="500"/>
    </clipPath>
    <g clip-path="url(#_clip1)">
        <g id="Red-Hen" serif:id="Red Hen" transform="matrix(0.466389,0,0,0.466389,89.0203,82.1293)">
            <path d="M171.335,205.486C127.643,223.014 73.211,211.409 64.385,202.677C41.309,179.85 47.782,142.541 47.782,142.541C48.661,130.292 56.217,136.414 56.217,136.414C52.656,131.138 55.929,127.362 55.929,127.362C60.573,122.054 73.825,132.148 78.862,133.547C87.843,136.044 97.562,134.895 106.281,132.994C124.404,129.04 151.685,118.745 158.541,98.793C158.632,98.525 158.722,98.248 158.809,97.976C166.063,74.695 187.65,82.748 187.65,82.748C190.15,83.895 192.132,85.277 193.702,86.801C196.214,89.246 197.653,92.061 198.402,94.894C199.368,98.527 199.206,102.192 198.726,105.148C198.125,108.86 197.021,111.447 197.021,111.447C196.457,112.775 195.99,114.123 195.608,115.491C193.13,124.317 194.137,133.885 194.415,142.966C195.084,164.781 185.174,199.933 171.335,205.486Z" style="fill:rgb(242,190,183);fill-rule:nonzero;stroke:rgb(211,85,71);stroke-width:1px;"/>
            <path d="M117.368,191.007C117.719,190.816 118.241,191.141 118.159,191.58C116.869,198.429 126.49,198.414 130.992,197.924C137.249,197.246 143.476,194.968 148.727,191.501C160.149,183.959 169.034,171.641 168.165,157.29C166.917,136.687 144.816,125.6 127.096,127.95C119.946,128.899 113.279,131.469 106.281,132.994C99.74,134.42 92.637,135.423 85.704,134.781C85.666,134.916 85.569,135.036 85.389,135.1C76.974,138.126 73.135,150.752 82.342,155.351C82.795,155.577 82.806,156.133 82.371,156.386C76.622,159.72 76.574,168.036 81.09,172.549C85.203,176.658 91.258,177.134 96.746,177.648C97.277,177.697 97.356,178.312 97.041,178.64C89.563,186.428 109.597,195.223 117.368,191.007" style="fill:url(#_Linear2);fill-rule:nonzero;stroke:rgb(212,51,51);stroke-width:1px;"/>
            <path d="M210.903,99.733C210.903,99.733 209.457,100.842 207.358,102.056C204.956,103.446 201.7,104.97 198.726,105.148C199.206,102.192 199.368,98.527 198.402,94.893C201.918,95.467 207.382,96.793 210.903,99.733" style="fill:rgb(255,197,82);fill-rule:nonzero;"/>
            <path d="M193.702,86.801C192.132,85.277 190.15,83.895 187.649,82.748C187.649,82.748 166.063,74.695 158.809,97.976C158.722,98.248 158.632,98.525 158.541,98.793C155.517,97.865 152.075,96.396 150.204,94.852C147.387,92.526 146.675,88.665 147.554,85.266C148.757,80.659 154.4,75.589 159.894,77.146C161.569,77.621 163.674,78.158 164.599,79.856C160.186,71.797 169.036,69.493 169.036,69.493C179.316,66.889 179.658,76.631 179.658,76.631C181.909,73.189 188.169,74.969 188.169,74.969C194.262,77.925 194.355,83.398 193.702,86.801" style="fill:rgb(222,79,63);fill-rule:nonzero;"/>
            <path d="M207.942,110.033C211.929,117.588 200.706,125.148 196.369,117.547C195.998,116.893 195.752,116.204 195.609,115.492C195.99,114.123 196.456,112.776 197.021,111.447C197.021,111.447 198.125,108.86 198.726,105.148C201.7,104.97 204.955,103.447 207.358,102.056C209.876,103.327 212.521,105.054 213.561,107.264C215.117,110.555 209.582,113.14 207.942,110.033" style="fill:rgb(222,79,63);fill-rule:nonzero;"/>
            <path d="M188.026,100.429C187.081,102.211 184.871,102.89 183.089,101.946C181.308,101.001 180.629,98.792 181.574,97.01C182.518,95.228 184.728,94.55 186.509,95.494C188.291,96.438 188.97,98.648 188.026,100.429" style="fill:rgb(34,31,31);fill-rule:nonzero;"/>
            <path d="M187.767,99.793C187.23,100.804 185.975,101.19 184.963,100.654C183.951,100.118 183.565,98.862 184.102,97.85C184.638,96.838 185.893,96.453 186.905,96.989C187.917,97.525 188.303,98.78 187.767,99.793" style="fill:white;fill-rule:nonzero;"/>
            <path d="M182.301,103.47C182.292,103.608 181.835,103.732 181.091,103.635C180.361,103.533 179.318,103.2 178.45,102.351C178.022,101.926 177.708,101.411 177.542,100.901C177.387,100.382 177.378,99.889 177.456,99.504C177.615,98.726 177.963,98.379 178.08,98.43C178.23,98.486 178.154,98.928 178.204,99.548C178.229,99.858 178.308,100.207 178.459,100.562C178.625,100.913 178.868,101.269 179.197,101.597C179.862,102.253 180.683,102.647 181.287,102.911C181.895,103.172 182.312,103.317 182.301,103.47" style="fill:rgb(208,201,186);fill-rule:nonzero;"/>
            <path d="M186.826,104.204C186.821,103.896 188.096,103.724 188.756,102.472C189.116,101.871 189.331,101.213 189.518,100.735C189.7,100.254 189.851,99.94 189.999,99.953C190.143,99.965 190.257,100.306 190.256,100.868C190.247,101.423 190.137,102.221 189.666,103.018C189.43,103.411 189.12,103.749 188.784,103.99C188.438,104.218 188.088,104.361 187.786,104.403C187.179,104.497 186.829,104.339 186.826,104.204" style="fill:rgb(208,201,186);fill-rule:nonzero;"/>
            <path d="M187.143,106.407C187.228,106.508 186.952,106.95 186.218,107.318C185.497,107.699 184.313,107.851 183.135,107.562C181.949,107.287 181.015,106.713 180.42,106.232C179.824,105.741 179.558,105.333 179.647,105.225C179.84,104.974 181.338,106.037 183.375,106.528C184.388,106.771 185.312,106.756 185.969,106.611C186.629,106.478 187.048,106.282 187.143,106.407Z" style="fill:rgb(208,201,186);fill-rule:nonzero;stroke:rgb(255,192,133);stroke-width:0.15px;stroke-linejoin:miter;stroke-miterlimit:10;"/>
            <path d="M64.84,135.573C64.757,135.693 64.355,135.583 63.765,135.301C63.176,135.024 62.391,134.563 61.598,133.927C60.799,133.294 60.205,132.552 59.854,131.981C59.522,131.389 59.415,130.976 59.534,130.901C59.662,130.819 59.987,131.079 60.438,131.51C60.912,131.926 61.521,132.511 62.269,133.104C63.01,133.699 63.7,134.242 64.184,134.679C64.664,135.118 64.924,135.452 64.84,135.573" style="fill:rgb(208,201,186);fill-rule:nonzero;"/>
            <path d="M165.946,114.622C166.043,114.719 165.679,115.337 164.89,116.209C164.49,116.64 163.977,117.137 163.283,117.575C162.931,117.787 162.537,117.994 162.07,118.109C161.615,118.237 161.078,118.273 160.563,118.139C160.284,118.089 160.098,117.982 159.804,117.858C159.648,117.74 159.573,117.663 159.47,117.573C159.372,117.487 159.3,117.375 159.218,117.275C158.912,116.856 158.766,116.377 158.714,115.943C158.626,115.064 158.836,114.337 159.062,113.776C159.537,112.647 160.131,112.148 160.238,112.236C160.361,112.324 160.021,112.948 159.777,114.005C159.659,114.526 159.568,115.17 159.682,115.801C159.744,116.113 159.859,116.409 160.048,116.651C160.103,116.706 160.141,116.774 160.203,116.823L160.353,116.947C160.455,116.978 160.65,117.09 160.808,117.106C161.14,117.195 161.484,117.182 161.822,117.1C162.161,117.032 162.489,116.883 162.796,116.727C163.41,116.4 163.938,115.999 164.381,115.658C165.263,114.962 165.836,114.513 165.946,114.622" style="fill:rgb(208,201,186);fill-rule:nonzero;"/>
            <path d="M175.434,123.802C175.544,123.85 175.439,124.658 174.696,125.767C174.321,126.305 173.739,126.952 172.789,127.266C172.317,127.41 171.768,127.433 171.247,127.3C170.724,127.169 170.241,126.901 169.827,126.56C169,125.867 168.49,124.996 168.167,124.182C167.847,123.36 167.709,122.581 167.675,121.929C167.616,120.616 167.905,119.848 168.036,119.869C168.193,119.887 168.181,120.663 168.418,121.833C168.541,122.417 168.739,123.097 169.066,123.795C169.392,124.488 169.861,125.206 170.5,125.739C171.14,126.277 171.883,126.482 172.527,126.324C173.178,126.161 173.716,125.719 174.112,125.296C174.913,124.434 175.284,123.727 175.434,123.802" style="fill:rgb(208,201,186);fill-rule:nonzero;"/>
            <path d="M187.071,128.978C187.135,128.97 187.246,129.138 187.305,129.475C187.377,129.809 187.384,130.324 187.207,130.937C187.033,131.546 186.625,132.237 185.965,132.778C185.315,133.325 184.426,133.72 183.437,133.799C182.45,133.89 181.451,133.571 180.773,132.984C180.432,132.691 180.194,132.335 180.013,131.995C179.853,131.643 179.752,131.303 179.707,130.991C179.547,129.735 179.892,129.043 180.006,129.062C180.174,129.072 180.123,129.816 180.438,130.82C180.594,131.317 180.892,131.849 181.392,132.227C181.892,132.594 182.596,132.809 183.358,132.74C184.116,132.681 184.826,132.398 185.365,132.008C185.911,131.62 186.284,131.13 186.507,130.668C186.955,129.732 186.902,128.987 187.071,128.978" style="fill:rgb(208,201,186);fill-rule:nonzero;"/>
            <path d="M157.074,122.927C157.156,123.013 156.769,123.609 155.745,124.08C154.745,124.535 153.022,124.692 151.484,123.816C150.724,123.388 150.114,122.778 149.724,122.115C149.57,121.76 149.391,121.439 149.346,121.094C149.314,120.926 149.269,120.767 149.26,120.611C149.262,120.454 149.264,120.303 149.265,120.159C149.355,119.006 149.853,118.475 149.95,118.529C150.112,118.589 149.904,119.217 150.015,120.135C150.032,120.248 150.05,120.366 150.069,120.489C150.095,120.609 150.153,120.728 150.192,120.854C150.252,121.111 150.43,121.344 150.559,121.605C150.903,122.09 151.392,122.545 152.001,122.889C153.232,123.59 154.594,123.582 155.504,123.369C156.426,123.145 156.97,122.795 157.074,122.927Z" style="fill:rgb(208,201,186);fill-rule:nonzero;stroke:rgb(255,192,133);stroke-width:0.15px;stroke-linejoin:miter;stroke-miterlimit:10;"/>
            <path d="M169.567,133.706C169.678,133.738 169.725,134.477 169.134,135.566C168.977,135.831 168.766,136.119 168.449,136.365C168.144,136.618 167.705,136.809 167.233,136.831C166.268,136.877 165.402,136.348 164.733,135.72C163.396,134.408 162.804,132.819 162.61,131.665C162.415,130.491 162.652,129.761 162.784,129.781C162.941,129.791 162.984,130.476 163.338,131.483C163.684,132.477 164.342,133.856 165.465,134.951C166.023,135.48 166.661,135.848 167.203,135.854C167.741,135.877 168.199,135.521 168.52,135.136C169.16,134.339 169.409,133.647 169.567,133.706" style="fill:rgb(208,201,186);fill-rule:nonzero;"/>
            <path d="M183.782,140.579C183.899,140.556 184.242,141.229 184.087,142.449C183.99,143.042 183.718,143.797 183.083,144.382C182.469,144.979 181.54,145.351 180.58,145.357C179.614,145.378 178.729,145.061 178.048,144.624C177.368,144.175 176.883,143.615 176.582,143.1C175.987,142.05 176.001,141.298 176.124,141.271C176.278,141.222 176.535,141.874 177.195,142.667C177.527,143.059 177.981,143.465 178.551,143.786C179.126,144.096 179.827,144.313 180.561,144.296C181.294,144.29 181.963,144.044 182.433,143.652C182.92,143.27 183.191,142.743 183.358,142.274C183.664,141.31 183.618,140.593 183.782,140.579" style="fill:rgb(208,201,186);fill-rule:nonzero;"/>
            <path d="M191.284,150.894C191.355,150.911 191.388,151.045 191.384,151.286C191.397,151.53 191.302,151.868 191.122,152.281C190.901,152.665 190.534,153.158 189.899,153.389C189.277,153.62 188.536,153.566 187.894,153.311C187.242,153.06 186.723,152.661 186.337,152.236C185.937,151.823 185.679,151.37 185.503,150.984C185.168,150.191 185.209,149.648 185.337,149.62C185.491,149.581 185.71,150.021 186.152,150.608C186.383,150.896 186.656,151.234 187.019,151.535C187.367,151.85 187.801,152.141 188.277,152.322C188.752,152.508 189.213,152.553 189.591,152.461C189.975,152.372 190.254,152.108 190.495,151.868C190.932,151.331 191.122,150.85 191.284,150.894" style="fill:rgb(208,201,186);fill-rule:nonzero;"/>
            <path d="M179.992,154.167C180.105,154.218 179.989,154.908 179.377,155.871C179.201,156.092 179.02,156.351 178.782,156.595C178.527,156.823 178.27,157.091 177.919,157.282C177.261,157.7 176.35,157.989 175.402,157.853C174.451,157.733 173.658,157.228 173.121,156.674C172.821,156.416 172.639,156.094 172.429,155.828C172.255,155.539 172.119,155.256 171.991,155.005C171.573,153.95 171.573,153.254 171.695,153.221C171.853,153.175 172.116,153.791 172.654,154.654C172.803,154.854 172.966,155.075 173.141,155.312C173.349,155.512 173.525,155.773 173.784,155.956C174.256,156.374 174.864,156.718 175.545,156.802C176.225,156.898 176.886,156.722 177.434,156.433C177.722,156.31 177.952,156.106 178.19,155.945C178.414,155.766 178.601,155.564 178.793,155.4C179.48,154.658 179.844,154.093 179.992,154.167" style="fill:rgb(208,201,186);fill-rule:nonzero;"/>
            <path d="M186.124,167.874C186.245,167.876 186.428,168.463 186.209,169.441C186.065,169.911 185.849,170.506 185.345,170.998C184.866,171.496 184.154,171.897 183.353,172.004C182.55,172.127 181.784,171.941 181.183,171.653C180.564,171.38 180.121,170.965 179.787,170.611C179.154,169.854 179.017,169.259 179.126,169.196C179.264,169.11 179.633,169.546 180.3,170.064C180.649,170.301 181.056,170.585 181.562,170.752C182.053,170.934 182.631,171.045 183.208,170.954C183.785,170.873 184.284,170.62 184.668,170.292C185.07,169.975 185.3,169.543 185.503,169.186C185.855,168.433 185.958,167.863 186.124,167.874" style="fill:rgb(208,201,186);fill-rule:nonzero;"/>
            <path d="M176.035,178.446C176.103,178.471 176.106,178.643 176.046,178.942C176.009,179.089 175.986,179.279 175.896,179.476C175.806,179.674 175.696,179.899 175.568,180.147C175.416,180.381 175.213,180.623 174.992,180.88C174.719,181.087 174.457,181.366 174.077,181.507C173.367,181.862 172.42,181.942 171.568,181.683C169.848,181.147 168.8,179.891 168.286,178.946C167.764,177.976 167.736,177.281 167.862,177.247C168.015,177.197 168.295,177.772 168.911,178.531C169.064,178.722 169.232,178.926 169.441,179.122C169.63,179.335 169.869,179.52 170.108,179.725C170.608,180.103 171.197,180.466 171.859,180.663C173.201,181.07 174.357,180.438 174.964,179.701C175.109,179.512 175.248,179.341 175.375,179.192C175.504,179.042 175.578,178.886 175.669,178.774C175.838,178.542 175.966,178.421 176.035,178.446" style="fill:rgb(208,201,186);fill-rule:nonzero;"/>
            <path d="M188.142,151.939C187.853,151.903 187.656,150.938 187.707,149.785C187.717,148.593 187.951,147.627 188.244,147.637C188.536,147.645 188.778,148.605 188.769,149.793C188.715,151.014 188.434,151.975 188.142,151.939" style="fill:rgb(208,201,186);fill-rule:nonzero;"/>
            <path d="M175.066,157.407C174.775,157.419 174.447,156.479 174.339,155.308C174.175,154.13 174.264,153.136 174.553,153.09C174.842,153.044 175.225,153.974 175.392,155.175C175.506,156.396 175.359,157.395 175.066,157.407" style="fill:rgb(208,201,186);fill-rule:nonzero;"/>
            <path d="M179.796,143.696C179.499,143.66 179.38,142.615 179.397,141.354C179.403,140.096 179.491,139.079 179.786,139.022C180.066,138.965 180.466,140.027 180.459,141.362C180.441,142.69 180.081,143.732 179.796,143.696" style="fill:rgb(208,201,186);fill-rule:nonzero;"/>
            <path d="M182.971,131.713C182.674,131.683 182.57,130.659 182.599,129.486C182.596,128.329 182.535,127.388 182.833,127.281C183.085,127.18 183.656,128.163 183.661,129.488C183.628,130.781 183.255,131.742 182.971,131.713" style="fill:rgb(208,201,186);fill-rule:nonzero;"/>
            <path d="M171.412,126.527C171.113,126.463 171.059,125.271 171.035,123.77C171,122.25 171.251,120.981 171.54,120.996C171.837,121.011 172.061,122.218 172.096,123.759C172.123,125.321 171.688,126.59 171.412,126.527" style="fill:rgb(208,201,186);fill-rule:nonzero;"/>
            <path d="M159.598,117.714C159.389,117.512 160.122,116.382 161.238,115.197C162.258,113.956 163.278,113.088 163.517,113.257C163.757,113.426 163.093,114.614 162.027,115.907C160.896,117.109 159.809,117.919 159.598,117.714" style="fill:rgb(208,201,186);fill-rule:nonzero;"/>
            <path d="M153.84,119.546C154.1,119.664 153.887,120.623 153.092,121.435C152.708,121.844 152.267,122.132 151.891,122.255C151.524,122.391 151.225,122.328 151.195,122.195C151.13,121.914 151.658,121.445 152.325,120.702C153.01,120.006 153.569,119.414 153.84,119.546" style="fill:rgb(208,201,186);fill-rule:nonzero;"/>
            <path d="M171.897,174.907C172.175,174.904 172.508,176.224 172.506,177.949C172.486,178.814 172.347,179.61 172.118,180.15C171.9,180.692 171.644,180.973 171.516,180.925C171.37,180.873 171.367,180.519 171.385,179.99C171.413,179.461 171.424,178.741 171.445,177.93C171.447,176.304 171.591,174.911 171.897,174.907" style="fill:rgb(208,201,186);fill-rule:nonzero;"/>
            <path d="M166.007,131.399C166.294,131.47 166.293,132.396 166.043,133.461C165.858,134.513 165.467,135.341 165.176,135.315C164.883,135.29 164.806,134.355 165.009,133.226C165.263,132.139 165.726,131.331 166.007,131.399" style="fill:rgb(208,201,186);fill-rule:nonzero;"/>
            <path d="M182.275,171.383C181.972,171.371 181.779,170.108 181.608,168.581C181.411,167.059 181.255,165.807 181.549,165.708C181.809,165.617 182.45,166.82 182.662,168.452C182.844,170.081 182.556,171.397 182.275,171.383" style="fill:rgb(208,201,186);fill-rule:nonzero;"/>
            <path d="M54.119,143.513C54,143.6 53.734,143.492 53.459,143.171C53.176,142.857 52.927,142.313 52.836,141.681C52.747,141.045 52.874,140.468 53.034,140.091C53.209,139.714 53.415,139.526 53.559,139.57C53.868,139.673 53.822,140.552 53.955,141.534C54.071,142.515 54.373,143.312 54.119,143.513" style="fill:rgb(208,201,186);fill-rule:nonzero;"/>
        </g>
        <g id="Red-Hen1" serif:id="Red Hen" transform="matrix(0.466389,0,0,0.466389,189.188,82.1293)">
            <path d="M171.335,205.486C127.643,223.014 73.211,211.409 64.385,202.677C41.309,179.85 47.782,142.541 47.782,142.541C48.661,130.292 56.217,136.414 56.217,136.414C52.656,131.138 55.929,127.362 55.929,127.362C60.573,122.054 73.825,132.148 78.862,133.547C87.843,136.044 97.562,134.895 106.281,132.994C124.404,129.04 151.685,118.745 158.541,98.793C158.632,98.525 158.722,98.248 158.809,97.976C166.063,74.695 187.65,82.748 187.65,82.748C190.15,83.895 192.132,85.277 193.702,86.801C196.214,89.246 197.653,92.061 198.402,94.894C199.368,98.527 199.206,102.192 198.726,105.148C198.125,108.86 197.021,111.447 197.021,111.447C196.457,112.775 195.99,114.123 195.608,115.491C193.13,124.317 194.137,133.885 194.415,142.966C195.084,164.781 185.174,199.933 171.335,205.486Z" style="fill:rgb(242,190,183);fill-rule:nonzero;stroke:rgb(211,85,71);stroke-width:1px;"/>
            <path d="M117.368,191.007C117.719,190.816 118.241,191.141 118.159,191.58C116.869,198.429 126.49,198.414 130.992,197.924C137.249,197.246 143.476,194.968 148.727,191.501C160.149,183.959 169.034,171.641 168.165,157.29C166.917,136.687 144.816,125.6 127.096,127.95C119.946,128.899 113.279,131.469 106.281,132.994C99.74,134.42 92.637,135.423 85.704,134.781C85.666,134.916 85.569,135.036 85.389,135.1C76.974,138.126 73.135,150.752 82.342,155.351C82.795,155.577 82.806,156.133 82.371,156.386C76.622,159.72 76.574,168.036 81.09,172.549C85.203,176.658 91.258,177.134 96.746,177.648C97.277,177.697 97.356,178.312 97.041,178.64C89.563,186.428 109.597,195.223 117.368,191.007" style="fill:url(#_Linear3);fill-rule:nonzero;stroke:rgb(212,51,51);stroke-width:1px;"/>
            <path d="M210.903,99.733C210.903,99.733 209.457,100.842 207.358,102.056C204.956,103.446 201.7,104.97 198.726,105.148C199.206,102.192 199.368,98.527 198.402,94.893C201.918,95.467 207.382,96.793 210.903,99.733" style="fill:rgb(255,197,82);fill-rule:nonzero;"/>
            <path d="M193.702,86.801C192.132,85.277 190.15,83.895 187.649,82.748C187.649,82.748 166.063,74.695 158.809,97.976C158.722,98.248 158.632,98.525 158.541,98.793C155.517,97.865 152.075,96.396 150.204,94.852C147.387,92.526 146.675,88.665 147.554,85.266C148.757,80.659 154.4,75.589 159.894,77.146C161.569,77.621 163.674,78.158 164.599,79.856C160.186,71.797 169.036,69.493 169.036,69.493C179.316,66.889 179.658,76.631 179.658,76.631C181.909,73.189 188.169,74.969 188.169,74.969C194.262,77.925 194.355,83.398 193.702,86.801" style="fill:rgb(222,79,63);fill-rule:nonzero;"/>
            <path d="M207.942,110.033C211.929,117.588 200.706,125.148 196.369,117.547C195.998,116.893 195.752,116.204 195.609,115.492C195.99,114.123 196.456,112.776 197.021,111.447C197.021,111.447 198.125,108.86 198.726,105.148C201.7,104.97 204.955,103.447 207.358,102.056C209.876,103.327 212.521,105.054 213.561,107.264C215.117,110.555 209.582,113.14 207.942,110.033" style="fill:rgb(222,79,63);fill-rule:nonzero;"/>
            <path d="M188.026,100.429C187.081,102.211 184.871,102.89 183.089,101.946C181.308,101.001 180.629,98.792 181.574,97.01C182.518,95.228 184.728,94.55 186.509,95.494C188.291,96.438 188.97,98.648 188.026,100.429" style="fill:rgb(34,31,31);fill-rule:nonzero;"/>
            <path d="M187.767,99.793C187.23,100.804 185.975,101.19 184.963,100.654C183.951,100.118 183.565,98.862 184.102,97.85C184.638,96.838 185.893,96.453 186.905,96.989C187.917,97.525 188.303,98.78 187.767,99.793" style="fill:white;fill-rule:nonzero;"/>
            <path d="M182.301,103.47C182.292,103.608 181.835,103.732 181.091,103.635C180.361,103.533 179.318,103.2 178.45,102.351C178.022,101.926 177.708,101.411 177.542,100.901C177.387,100.382 177.378,99.889 177.456,99.504C177.615,98.726 177.963,98.379 178.08,98.43C178.23,98.486 178.154,98.928 178.204,99.548C178.229,99.858 178.308,100.207 178.459,100.562C178.625,100.913 178.868,101.269 179.197,101.597C179.862,102.253 180.683,102.647 181.287,102.911C181.895,103.172 182.312,103.317 182.301,103.47" style="fill:rgb(208,201,186);fill-rule:nonzero;"/>
            <path d="M186.826,104.204C186.821,103.896 188.096,103.724 188.756,102.472C189.116,101.871 189.331,101.213 189.518,100.735C189.7,100.254 189.851,99.94 189.999,99.953C190.143,99.965 190.257,100.306 190.256,100.868C190.247,101.423 190.137,102.221 189.666,103.018C189.43,103.411 189.12,103.749 188.784,103.99C188.438,104.218 188.088,104.361 187.786,104.403C187.179,104.497 186.829,104.339 186.826,104.204" style="fill:rgb(208,201,186);fill-rule:nonzero;"/>
            <path d="M187.143,106.407C187.228,106.508 186.952,106.95 186.218,107.318C185.497,107.699 184.313,107.851 183.135,107.562C181.949,107.287 181.015,106.713 180.42,106.232C179.824,105.741 179.558,105.333 179.647,105.225C179.84,104.974 181.338,106.037 183.375,106.528C184.388,106.771 185.312,106.756 185.969,106.611C186.629,106.478 187.048,106.282 187.143,106.407Z" style="fill:rgb(208,201,186);fill-rule:nonzero;stroke:rgb(255,192,133);stroke-width:0.15px;stroke-linejoin:miter;stroke-miterlimit:10;"/>
            <path d="M64.84,135.573C64.757,135.693 64.355,135.583 63.765,135.301C63.176,135.024 62.391,134.563 61.598,133.927C60.799,133.294 60.205,132.552 59.854,131.981C59.522,131.389 59.415,130.976 59.534,130.901C59.662,130.819 59.987,131.079 60.438,131.51C60.912,131.926 61.521,132.511 62.269,133.104C63.01,133.699 63.7,134.242 64.184,134.679C64.664,135.118 64.924,135.452 64.84,135.573" style="fill:rgb(208,201,186);fill-rule:nonzero;"/>
            <path d="M165.946,114.622C166.043,114.719 165.679,115.337 164.89,116.209C164.49,116.64 163.977,117.137 163.283,117.575C162.931,117.787 162.537,117.994 162.07,118.109C161.615,118.237 161.078,118.273 160.563,118.139C160.284,118.089 160.098,117.982 159.804,117.858C159.648,117.74 159.573,117.663 159.47,117.573C159.372,117.487 159.3,117.375 159.218,117.275C158.912,116.856 158.766,116.377 158.714,115.943C158.626,115.064 158.836,114.337 159.062,113.776C159.537,112.647 160.131,112.148 160.238,112.236C160.361,112.324 160.021,112.948 159.777,114.005C159.659,114.526 159.568,115.17 159.682,115.801C159.744,116.113 159.859,116.409 160.048,116.651C160.103,116.706 160.141,116.774 160.203,116.823L160.353,116.947C160.455,116.978 160.65,117.09 160.808,117.106C161.14,117.195 161.484,117.182 161.822,117.1C162.161,117.032 162.489,116.883 162.796,116.727C163.41,116.4 163.938,115.999 164.381,115.658C165.263,114.962 165.836,114.513 165.946,114.622" style="fill:rgb(208,201,186);fill-rule:nonzero;"/>
            <path d="M175.434,123.802C175.544,123.85 175.439,124.658 174.696,125.767C174.321,126.305 173.739,126.952 172.789,127.266C172.317,127.41 171.768,127.433 171.247,127.3C170.724,127.169 170.241,126.901 169.827,126.56C169,125.867 168.49,124.996 168.167,124.182C167.847,123.36 167.709,122.581 167.675,121.929C167.616,120.616 167.905,119.848 168.036,119.869C168.193,119.887 168.181,120.663 168.418,121.833C168.541,122.417 168.739,123.097 169.066,123.795C169.392,124.488 169.861,125.206 170.5,125.739C171.14,126.277 171.883,126.482 172.527,126.324C173.178,126.161 173.716,125.719 174.112,125.296C174.913,124.434 175.284,123.727 175.434,123.802" style="fill:rgb(208,201,186);fill-rule:nonzero;"/>
            <path d="M187.071,128.978C187.135,128.97 187.246,129.138 187.305,129.475C187.377,129.809 187.384,130.324 187.207,130.937C187.033,131.546 186.625,132.237 185.965,132.778C185.315,133.325 184.426,133.72 183.437,133.799C182.45,133.89 181.451,133.571 180.773,132.984C180.432,132.691 180.194,132.335 180.013,131.995C179.853,131.643 179.752,131.303 179.707,130.991C179.547,129.735 179.892,129.043 180.006,129.062C180.174,129.072 180.123,129.816 180.438,130.82C180.594,131.317 180.892,131.849 181.392,132.227C181.892,132.594 182.596,132.809 183.358,132.74C184.116,132.681 184.826,132.398 185.365,132.008C185.911,131.62 186.284,131.13 186.507,130.668C186.955,129.732 186.902,128.987 187.071,128.978" style="fill:rgb(208,201,186);fill-rule:nonzero;"/>
            <path d="M157.074,122.927C157.156,123.013 156.769,123.609 155.745,124.08C154.745,124.535 153.022,124.692 151.484,123.816C150.724,123.388 150.114,122.778 149.724,122.115C149.57,121.76 149.391,121.439 149.346,121.094C149.314,120.926 149.269,120.767 149.26,120.611C149.262,120.454 149.264,120.303 149.265,120.159C149.355,119.006 149.853,118.475 149.95,118.529C150.112,118.589 149.904,119.217 150.015,120.135C150.032,120.248 150.05,120.366 150.069,120.489C150.095,120.609 150.153,120.728 150.192,120.854C150.252,121.111 150.43,121.344 150.559,121.605C150.903,122.09 151.392,122.545 152.001,122.889C153.232,123.59 154.594,123.582 155.504,123.369C156.426,123.145 156.97,122.795 157.074,122.927Z" style="fill:rgb(208,201,186);fill-rule:nonzero;stroke:rgb(255,192,133);stroke-width:0.15px;stroke-linejoin:miter;stroke-miterlimit:10;"/>
            <path d="M169.567,133.706C169.678,133.738 169.725,134.477 169.134,135.566C168.977,135.831 168.766,136.119 168.449,136.365C168.144,136.618 167.705,136.809 167.233,136.831C166.268,136.877 165.402,136.348 164.733,135.72C163.396,134.408 162.804,132.819 162.61,131.665C162.415,130.491 162.652,129.761 162.784,129.781C162.941,129.791 162.984,130.476 163.338,131.483C163.684,132.477 164.342,133.856 165.465,134.951C166.023,135.48 166.661,135.848 167.203,135.854C167.741,135.877 168.199,135.521 168.52,135.136C169.16,134.339 169.409,133.647 169.567,133.706" style="fill:rgb(208,201,186);fill-rule:nonzero;"/>
            <path d="M183.782,140.579C183.899,140.556 184.242,141.229 184.087,142.449C183.99,143.042 183.718,143.797 183.083,144.382C182.469,144.979 181.54,145.351 180.58,145.357C179.614,145.378 178.729,145.061 178.048,144.624C177.368,144.175 176.883,143.615 176.582,143.1C175.987,142.05 176.001,141.298 176.124,141.271C176.278,141.222 176.535,141.874 177.195,142.667C177.527,143.059 177.981,143.465 178.551,143.786C179.126,144.096 179.827,144.313 180.561,144.296C181.294,144.29 181.963,144.044 182.433,143.652C182.92,143.27 183.191,142.743 183.358,142.274C183.664,141.31 183.618,140.593 183.782,140.579" style="fill:rgb(208,201,186);fill-rule:nonzero;"/>
            <path d="M191.284,150.894C191.355,150.911 191.388,151.045 191.384,151.286C191.397,151.53 191.302,151.868 191.122,152.281C190.901,152.665 190.534,153.158 189.899,153.389C189.277,153.62 188.536,153.566 187.894,153.311C187.242,153.06 186.723,152.661 186.337,152.236C185.937,151.823 185.679,151.37 185.503,150.984C185.168,150.191 185.209,149.648 185.337,149.62C185.491,149.581 185.71,150.021 186.152,150.608C186.383,150.896 186.656,151.234 187.019,151.535C187.367,151.85 187.801,152.141 188.277,152.322C188.752,152.508 189.213,152.553 189.591,152.461C189.975,152.372 190.254,152.108 190.495,151.868C190.932,151.331 191.122,150.85 191.284,150.894" style="fill:rgb(208,201,186);fill-rule:nonzero;"/>
            <path d="M179.992,154.167C180.105,154.218 179.989,154.908 179.377,155.871C179.201,156.092 179.02,156.351 178.782,156.595C178.527,156.823 178.27,157.091 177.919,157.282C177.261,157.7 176.35,157.989 175.402,157.853C174.451,157.733 173.658,157.228 173.121,156.674C172.821,156.416 172.639,156.094 172.429,155.828C172.255,155.539 172.119,155.256 171.991,155.005C171.573,153.95 171.573,153.254 171.695,153.221C171.853,153.175 172.116,153.791 172.654,154.654C172.803,154.854 172.966,155.075 173.141,155.312C173.349,155.512 173.525,155.773 173.784,155.956C174.256,156.374 174.864,156.718 175.545,156.802C176.225,156.898 176.886,156.722 177.434,156.433C177.722,156.31 177.952,156.106 178.19,155.945C178.414,155.766 178.601,155.564 178.793,155.4C179.48,154.658 179.844,154.093 179.992,154.167" style="fill:rgb(208,201,186);fill-rule:nonzero;"/>
            <path d="M186.124,167.874C186.245,167.876 186.428,168.463 186.209,169.441C186.065,169.911 185.849,170.506 185.345,170.998C184.866,171.496 184.154,171.897 183.353,172.004C182.55,172.127 181.784,171.941 181.183,171.653C180.564,171.38 180.121,170.965 179.787,170.611C179.154,169.854 179.017,169.259 179.126,169.196C179.264,169.11 179.633,169.546 180.3,170.064C180.649,170.301 181.056,170.585 181.562,170.752C182.053,170.934 182.631,171.045 183.208,170.954C183.785,170.873 184.284,170.62 184.668,170.292C185.07,169.975 185.3,169.543 185.503,169.186C185.855,168.433 185.958,167.863 186.124,167.874" style="fill:rgb(208,201,186);fill-rule:nonzero;"/>
            <path d="M176.035,178.446C176.103,178.471 176.106,178.643 176.046,178.942C176.009,179.089 175.986,179.279 175.896,179.476C175.806,179.674 175.696,179.899 175.568,180.147C175.416,180.381 175.213,180.623 174.992,180.88C174.719,181.087 174.457,181.366 174.077,181.507C173.367,181.862 172.42,181.942 171.568,181.683C169.848,181.147 168.8,179.891 168.286,178.946C167.764,177.976 167.736,177.281 167.862,177.247C168.015,177.197 168.295,177.772 168.911,178.531C169.064,178.722 169.232,178.926 169.441,179.122C169.63,179.335 169.869,179.52 170.108,179.725C170.608,180.103 171.197,180.466 171.859,180.663C173.201,181.07 174.357,180.438 174.964,179.701C175.109,179.512 175.248,179.341 175.375,179.192C175.504,179.042 175.578,178.886 175.669,178.774C175.838,178.542 175.966,178.421 176.035,178.446" style="fill:rgb(208,201,186);fill-rule:nonzero;"/>
            <path d="M188.142,151.939C187.853,151.903 187.656,150.938 187.707,149.785C187.717,148.593 187.951,147.627 188.244,147.637C188.536,147.645 188.778,148.605 188.769,149.793C188.715,151.014 188.434,151.975 188.142,151.939" style="fill:rgb(208,201,186);fill-rule:nonzero;"/>
            <path d="M175.066,157.407C174.775,157.419 174.447,156.479 174.339,155.308C174.175,154.13 174.264,153.136 174.553,153.09C174.842,153.044 175.225,153.974 175.392,155.175C175.506,156.396 175.359,157.395 175.066,157.407" style="fill:rgb(208,201,186);fill-rule:nonzero;"/>
            <path d="M179.796,143.696C179.499,143.66 179.38,142.615 179.397,141.354C179.403,140.096 179.491,139.079 179.786,139.022C180.066,138.965 180.466,140.027 180.459,141.362C180.441,142.69 180.081,143.732 179.796,143.696" style="fill:rgb(208,201,186);fill-rule:nonzero;"/>
            <path d="M182.971,131.713C182.674,131.683 182.57,130.659 182.599,129.486C182.596,128.329 182.535,127.388 182.833,127.281C183.085,127.18 183.656,128.163 183.661,129.488C183.628,130.781 183.255,131.742 182.971,131.713" style="fill:rgb(208,201,186);fill-rule:nonzero;"/>
            <path d="M171.412,126.527C171.113,126.463 171.059,125.271 171.035,123.77C171,122.25 171.251,120.981 171.54,120.996C171.837,121.011 172.061,122.218 172.096,123.759C172.123,125.321 171.688,126.59 171.412,126.527" style="fill:rgb(208,201,186);fill-rule:nonzero;"/>
            <path d="M159.598,117.714C159.389,117.512 160.122,116.382 161.238,115.197C162.258,113.956 163.278,113.088 163.517,113.257C163.757,113.426 163.093,114.614 162.027,115.907C160.896,117.109 159.809,117.919 159.598,117.714" style="fill:rgb(208,201,186);fill-rule:nonzero;"/>
            <path d="M153.84,119.546C154.1,119.664 153.887,120.623 153.092,121.435C152.708,121.844 152.267,122.132 151.891,122.255C151.524,122.391 151.225,122.328 151.195,122.195C151.13,121.914 151.658,121.445 152.325,120.702C153.01,120.006 153.569,119.414 153.84,119.546" style="fill:rgb(208,201,186);fill-rule:nonzero;"/>
            <path d="M171.897,174.907C172.175,174.904 172.508,176.224 172.506,177.949C172.486,178.814 172.347,179.61 172.118,180.15C171.9,180.692 171.644,180.973 171.516,180.925C171.37,180.873 171.367,180.519 171.385,179.99C171.413,179.461 171.424,178.741 171.445,177.93C171.447,176.304 171.591,174.911 171.897,174.907" style="fill:rgb(208,201,186);fill-rule:nonzero;"/>
            <path d="M166.007,131.399C166.294,131.47 166.293,132.396 166.043,133.461C165.858,134.513 165.467,135.341 165.176,135.315C164.883,135.29 164.806,134.355 165.009,133.226C165.263,132.139 165.726,131.331 166.007,131.399" style="fill:rgb(208,201,186);fill-rule:nonzero;"/>
            <path d="M182.275,171.383C181.972,171.371 181.779,170.108 181.608,168.581C181.411,167.059 181.255,165.807 181.549,165.708C181.809,165.617 182.45,166.82 182.662,168.452C182.844,170.081 182.556,171.397 182.275,171.383" style="fill:rgb(208,201,186);fill-rule:nonzero;"/>
            <path d="M54.119,143.513C54,143.6 53.734,143.492 53.459,143.171C53.176,142.857 52.927,142.313 52.836,141.681C52.747,141.045 52.874,140.468 53.034,140.091C53.209,139.714 53.415,139.526 53.559,139.57C53.868,139.673 53.822,140.552 53.955,141.534C54.071,142.515 54.373,143.312 54.119,143.513" style="fill:rgb(208,201,186);fill-rule:nonzero;"/>
        </g>
        <g id="Red-Hen2" serif:id="Red Hen" transform="matrix(0.466389,0,0,0.466389,90.9336,183.853)">
            <path d="M171.335,205.486C127.643,223.014 73.211,211.409 64.385,202.677C41.309,179.85 47.782,142.541 47.782,142.541C48.661,130.292 56.217,136.414 56.217,136.414C52.656,131.138 55.929,127.362 55.929,127.362C60.573,122.054 73.825,132.148 78.862,133.547C87.843,136.044 97.562,134.895 106.281,132.994C124.404,129.04 151.685,118.745 158.541,98.793C158.632,98.525 158.722,98.248 158.809,97.976C166.063,74.695 187.65,82.748 187.65,82.748C190.15,83.895 192.132,85.277 193.702,86.801C196.214,89.246 197.653,92.061 198.402,94.894C199.368,98.527 199.206,102.192 198.726,105.148C198.125,108.86 197.021,111.447 197.021,111.447C196.457,112.775 195.99,114.123 195.608,115.491C193.13,124.317 194.137,133.885 194.415,142.966C195.084,164.781 185.174,199.933 171.335,205.486Z" style="fill:rgb(242,190,183);fill-rule:nonzero;stroke:rgb(211,85,71);stroke-width:1px;"/>
            <path d="M117.368,191.007C117.719,190.816 118.241,191.141 118.159,191.58C116.869,198.429 126.49,198.414 130.992,197.924C137.249,197.246 143.476,194.968 148.727,191.501C160.149,183.959 169.034,171.641 168.165,157.29C166.917,136.687 144.816,125.6 127.096,127.95C119.946,128.899 113.279,131.469 106.281,132.994C99.74,134.42 92.637,135.423 85.704,134.781C85.666,134.916 85.569,135.036 85.389,135.1C76.974,138.126 73.135,150.752 82.342,155.351C82.795,155.577 82.806,156.133 82.371,156.386C76.622,159.72 76.574,168.036 81.09,172.549C85.203,176.658 91.258,177.134 96.746,177.648C97.277,177.697 97.356,178.312 97.041,178.64C89.563,186.428 109.597,195.223 117.368,191.007" style="fill:url(#_Linear4);fill-rule:nonzero;stroke:rgb(212,51,51);stroke-width:1px;"/>
            <path d="M210.903,99.733C210.903,99.733 209.457,100.842 207.358,102.056C204.956,103.446 201.7,104.97 198.726,105.148C199.206,102.192 199.368,98.527 198.402,94.893C201.918,95.467 207.382,96.793 210.903,99.733" style="fill:rgb(255,197,82);fill-rule:nonzero;"/>
            <path d="M193.702,86.801C192.132,85.277 190.15,83.895 187.649,82.748C187.649,82.748 166.063,74.695 158.809,97.976C158.722,98.248 158.632,98.525 158.541,98.793C155.517,97.865 152.075,96.396 150.204,94.852C147.387,92.526 146.675,88.665 147.554,85.266C148.757,80.659 154.4,75.589 159.894,77.146C161.569,77.621 163.674,78.158 164.599,79.856C160.186,71.797 169.036,69.493 169.036,69.493C179.316,66.889 179.658,76.631 179.658,76.631C181.909,73.189 188.169,74.969 188.169,74.969C194.262,77.925 194.355,83.398 193.702,86.801" style="fill:rgb(222,79,63);fill-rule:nonzero;"/>
            <path d="M207.942,110.033C211.929,117.588 200.706,125.148 196.369,117.547C195.998,116.893 195.752,116.204 195.609,115.492C195.99,114.123 196.456,112.776 197.021,111.447C197.021,111.447 198.125,108.86 198.726,105.148C201.7,104.97 204.955,103.447 207.358,102.056C209.876,103.327 212.521,105.054 213.561,107.264C215.117,110.555 209.582,113.14 207.942,110.033" style="fill:rgb(222,79,63);fill-rule:nonzero;"/>
            <path d="M188.026,100.429C187.081,102.211 184.871,102.89 183.089,101.946C181.308,101.001 180.629,98.792 181.574,97.01C182.518,95.228 184.728,94.55 186.509,95.494C188.291,96.438 188.97,98.648 188.026,100.429" style="fill:rgb(34,31,31);fill-rule:nonzero;"/>
            <path d="M187.767,99.793C187.23,100.804 185.975,101.19 184.963,100.654C183.951,100.118 183.565,98.862 184.102,97.85C184.638,96.838 185.893,96.453 186.905,96.989C187.917,97.525 188.303,98.78 187.767,99.793" style="fill:white;fill-rule:nonzero;"/>
            <path d="M182.301,103.47C182.292,103.608 181.835,103.732 181.091,103.635C180.361,103.533 179.318,103.2 178.45,102.351C178.022,101.926 177.708,101.411 177.542,100.901C177.387,100.382 177.378,99.889 177.456,99.504C177.615,98.726 177.963,98.379 178.08,98.43C178.23,98.486 178.154,98.928 178.204,99.548C178.229,99.858 178.308,100.207 178.459,100.562C178.625,100.913 178.868,101.269 179.197,101.597C179.862,102.253 180.683,102.647 181.287,102.911C181.895,103.172 182.312,103.317 182.301,103.47" style="fill:rgb(208,201,186);fill-rule:nonzero;"/>
            <path d="M186.826,104.204C186.821,103.896 188.096,103.724 188.756,102.472C189.116,101.871 189.331,101.213 189.518,100.735C189.7,100.254 189.851,99.94 189.999,99.953C190.143,99.965 190.257,100.306 190.256,100.868C190.247,101.423 190.137,102.221 189.666,103.018C189.43,103.411 189.12,103.749 188.784,103.99C188.438,104.218 188.088,104.361 187.786,104.403C187.179,104.497 186.829,104.339 186.826,104.204" style="fill:rgb(208,201,186);fill-rule:nonzero;"/>
            <path d="M187.143,106.407C187.228,106.508 186.952,106.95 186.218,107.318C185.497,107.699 184.313,107.851 183.135,107.562C181.949,107.287 181.015,106.713 180.42,106.232C179.824,105.741 179.558,105.333 179.647,105.225C179.84,104.974 181.338,106.037 183.375,106.528C184.388,106.771 185.312,106.756 185.969,106.611C186.629,106.478 187.048,106.282 187.143,106.407Z" style="fill:rgb(208,201,186);fill-rule:nonzero;stroke:rgb(255,192,133);stroke-width:0.15px;stroke-linejoin:miter;stroke-miterlimit:10;"/>
            <path d="M64.84,135.573C64.757,135.693 64.355,135.583 63.765,135.301C63.176,135.024 62.391,134.563 61.598,133.927C60.799,133.294 60.205,132.552 59.854,131.981C59.522,131.389 59.415,130.976 59.534,130.901C59.662,130.819 59.987,131.079 60.438,131.51C60.912,131.926 61.521,132.511 62.269,133.104C63.01,133.699 63.7,134.242 64.184,134.679C64.664,135.118 64.924,135.452 64.84,135.573" style="fill:rgb(208,201,186);fill-rule:nonzero;"/>
            <path d="M165.946,114.622C166.043,114.719 165.679,115.337 164.89,116.209C164.49,116.64 163.977,117.137 163.283,117.575C162.931,117.787 162.537,117.994 162.07,118.109C161.615,118.237 161.078,118.273 160.563,118.139C160.284,118.089 160.098,117.982 159.804,117.858C159.648,117.74 159.573,117.663 159.47,117.573C159.372,117.487 159.3,117.375 159.218,117.275C158.912,116.856 158.766,116.377 158.714,115.943C158.626,115.064 158.836,114.337 159.062,113.776C159.537,112.647 160.131,112.148 160.238,112.236C160.361,112.324 160.021,112.948 159.777,114.005C159.659,114.526 159.568,115.17 159.682,115.801C159.744,116.113 159.859,116.409 160.048,116.651C160.103,116.706 160.141,116.774 160.203,116.823L160.353,116.947C160.455,116.978 160.65,117.09 160.808,117.106C161.14,117.195 161.484,117.182 161.822,117.1C162.161,117.032 162.489,116.883 162.796,116.727C163.41,116.4 163.938,115.999 164.381,115.658C165.263,114.962 165.836,114.513 165.946,114.622" style="fill:rgb(208,201,186);fill-rule:nonzero;"/>
            <path d="M175.434,123.802C175.544,123.85 175.439,124.658 174.696,125.767C174.321,126.305 173.739,126.952 172.789,127.266C172.317,127.41 171.768,127.433 171.247,127.3C170.724,127.169 170.241,126.901 169.827,126.56C169,125.867 168.49,124.996 168.167,124.182C167.847,123.36 167.709,122.581 167.675,121.929C167.616,120.616 167.905,119.848 168.036,119.869C168.193,119.887 168.181,120.663 168.418,121.833C168.541,122.417 168.739,123.097 169.066,123.795C169.392,124.488 169.861,125.206 170.5,125.739C171.14,126.277 171.883,126.482 172.527,126.324C173.178,126.161 173.716,125.719 174.112,125.296C174.913,124.434 175.284,123.727 175.434,123.802" style="fill:rgb(208,201,186);fill-rule:nonzero;"/>
            <path d="M187.071,128.978C187.135,128.97 187.246,129.138 187.305,129.475C187.377,129.809 187.384,130.324 187.207,130.937C187.033,131.546 186.625,132.237 185.965,132.778C185.315,133.325 184.426,133.72 183.437,133.799C182.45,133.89 181.451,133.571 180.773,132.984C180.432,132.691 180.194,132.335 180.013,131.995C179.853,131.643 179.752,131.303 179.707,130.991C179.547,129.735 179.892,129.043 180.006,129.062C180.174,129.072 180.123,129.816 180.438,130.82C180.594,131.317 180.892,131.849 181.392,132.227C181.892,132.594 182.596,132.809 183.358,132.74C184.116,132.681 184.826,132.398 185.365,132.008C185.911,131.62 186.284,131.13 186.507,130.668C186.955,129.732 186.902,128.987 187.071,128.978" style="fill:rgb(208,201,186);fill-rule:nonzero;"/>
            <path d="M157.074,122.927C157.156,123.013 156.769,123.609 155.745,124.08C154.745,124.535 153.022,124.692 151.484,123.816C150.724,123.388 150.114,122.778 149.724,122.115C149.57,121.76 149.391,121.439 149.346,121.094C149.314,120.926 149.269,120.767 149.26,120.611C149.262,120.454 149.264,120.303 149.265,120.159C149.355,119.006 149.853,118.475 149.95,118.529C150.112,118.589 149.904,119.217 150.015,120.135C150.032,120.248 150.05,120.366 150.069,120.489C150.095,120.609 150.153,120.728 150.192,120.854C150.252,121.111 150.43,121.344 150.559,121.605C150.903,122.09 151.392,122.545 152.001,122.889C153.232,123.59 154.594,123.582 155.504,123.369C156.426,123.145 156.97,122.795 157.074,122.927Z" style="fill:rgb(208,201,186);fill-rule:nonzero;stroke:rgb(255,192,133);stroke-width:0.15px;stroke-linejoin:miter;stroke-miterlimit:10;"/>
            <path d="M169.567,133.706C169.678,133.738 169.725,134.477 169.134,135.566C168.977,135.831 168.766,136.119 168.449,136.365C168.144,136.618 167.705,136.809 167.233,136.831C166.268,136.877 165.402,136.348 164.733,135.72C163.396,134.408 162.804,132.819 162.61,131.665C162.415,130.491 162.652,129.761 162.784,129.781C162.941,129.791 162.984,130.476 163.338,131.483C163.684,132.477 164.342,133.856 165.465,134.951C166.023,135.48 166.661,135.848 167.203,135.854C167.741,135.877 168.199,135.521 168.52,135.136C169.16,134.339 169.409,133.647 169.567,133.706" style="fill:rgb(208,201,186);fill-rule:nonzero;"/>
            <path d="M183.782,140.579C183.899,140.556 184.242,141.229 184.087,142.449C183.99,143.042 183.718,143.797 183.083,144.382C182.469,144.979 181.54,145.351 180.58,145.357C179.614,145.378 178.729,145.061 178.048,144.624C177.368,144.175 176.883,143.615 176.582,143.1C175.987,142.05 176.001,141.298 176.124,141.271C176.278,141.222 176.535,141.874 177.195,142.667C177.527,143.059 177.981,143.465 178.551,143.786C179.126,144.096 179.827,144.313 180.561,144.296C181.294,144.29 181.963,144.044 182.433,143.652C182.92,143.27 183.191,142.743 183.358,142.274C183.664,141.31 183.618,140.593 183.782,140.579" style="fill:rgb(208,201,186);fill-rule:nonzero;"/>
            <path d="M191.284,150.894C191.355,150.911 191.388,151.045 191.384,151.286C191.397,151.53 191.302,151.868 191.122,152.281C190.901,152.665 190.534,153.158 189.899,153.389C189.277,153.62 188.536,153.566 187.894,153.311C187.242,153.06 186.723,152.661 186.337,152.236C185.937,151.823 185.679,151.37 185.503,150.984C185.168,150.191 185.209,149.648 185.337,149.62C185.491,149.581 185.71,150.021 186.152,150.608C186.383,150.896 186.656,151.234 187.019,151.535C187.367,151.85 187.801,152.141 188.277,152.322C188.752,152.508 189.213,152.553 189.591,152.461C189.975,152.372 190.254,152.108 190.495,151.868C190.932,151.331 191.122,150.85 191.284,150.894" style="fill:rgb(208,201,186);fill-rule:nonzero;"/>
            <path d="M179.992,154.167C180.105,154.218 179.989,154.908 179.377,155.871C179.201,156.092 179.02,156.351 178.782,156.595C178.527,156.823 178.27,157.091 177.919,157.282C177.261,157.7 176.35,157.989 175.402,157.853C174.451,157.733 173.658,157.228 173.121,156.674C172.821,156.416 172.639,156.094 172.429,155.828C172.255,155.539 172.119,155.256 171.991,155.005C171.573,153.95 171.573,153.254 171.695,153.221C171.853,153.175 172.116,153.791 172.654,154.654C172.803,154.854 172.966,155.075 173.141,155.312C173.349,155.512 173.525,155.773 173.784,155.956C174.256,156.374 174.864,156.718 175.545,156.802C176.225,156.898 176.886,156.722 177.434,156.433C177.722,156.31 177.952,156.106 178.19,155.945C178.414,155.766 178.601,155.564 178.793,155.4C179.48,154.658 179.844,154.093 179.992,154.167" style="fill:rgb(208,201,186);fill-rule:nonzero;"/>
            <path d="M186.124,167.874C186.245,167.876 186.428,168.463 186.209,169.441C186.065,169.911 185.849,170.506 185.345,170.998C184.866,171.496 184.154,171.897 183.353,172.004C182.55,172.127 181.784,171.941 181.183,171.653C180.564,171.38 180.121,170.965 179.787,170.611C179.154,169.854 179.017,169.259 179.126,169.196C179.264,169.11 179.633,169.546 180.3,170.064C180.649,170.301 181.056,170.585 181.562,170.752C182.053,170.934 182.631,171.045 183.208,170.954C183.785,170.873 184.284,170.62 184.668,170.292C185.07,169.975 185.3,169.543 185.503,169.186C185.855,168.433 185.958,167.863 186.124,167.874" style="fill:rgb(208,201,186);fill-rule:nonzero;"/>
            <path d="M176.035,178.446C176.103,178.471 176.106,178.643 176.046,178.942C176.009,179.089 175.986,179.279 175.896,179.476C175.806,179.674 175.696,179.899 175.568,180.147C175.416,180.381 175.213,180.623 174.992,180.88C174.719,181.087 174.457,181.366 174.077,181.507C173.367,181.862 172.42,181.942 171.568,181.683C169.848,181.147 168.8,179.891 168.286,178.946C167.764,177.976 167.736,177.281 167.862,177.247C168.015,177.197 168.295,177.772 168.911,178.531C169.064,178.722 169.232,178.926 169.441,179.122C169.63,179.335 169.869,179.52 170.108,179.725C170.608,180.103 171.197,180.466 171.859,180.663C173.201,181.07 174.357,180.438 174.964,179.701C175.109,179.512 175.248,179.341 175.375,179.192C175.504,179.042 175.578,178.886 175.669,178.774C175.838,178.542 175.966,178.421 176.035,178.446" style="fill:rgb(208,201,186);fill-rule:nonzero;"/>
            <path d="M188.142,151.939C187.853,151.903 187.656,150.938 187.707,149.785C187.717,148.593 187.951,147.627 188.244,147.637C188.536,147.645 188.778,148.605 188.769,149.793C188.715,151.014 188.434,151.975 188.142,151.939" style="fill:rgb(208,201,186);fill-rule:nonzero;"/>
            <path d="M175.066,157.407C174.775,157.419 174.447,156.479 174.339,155.308C174.175,154.13 174.264,153.136 174.553,153.09C174.842,153.044 175.225,153.974 175.392,155.175C175.506,156.396 175.359,157.395 175.066,157.407" style="fill:rgb(208,201,186);fill-rule:nonzero;"/>
            <path d="M179.796,143.696C179.499,143.66 179.38,142.615 179.397,141.354C179.403,140.096 179.491,139.079 179.786,139.022C180.066,138.965 180.466,140.027 180.459,141.362C180.441,142.69 180.081,143.732 179.796,143.696" style="fill:rgb(208,201,186);fill-rule:nonzero;"/>
            <path d="M182.971,131.713C182.674,131.683 182.57,130.659 182.599,129.486C182.596,128.329 182.535,127.388 182.833,127.281C183.085,127.18 183.656,128.163 183.661,129.488C183.628,130.781 183.255,131.742 182.971,131.713" style="fill:rgb(208,201,186);fill-rule:nonzero;"/>
            <path d="M171.412,126.527C171.113,126.463 171.059,125.271 171.035,123.77C171,122.25 171.251,120.981 171.54,120.996C171.837,121.011 172.061,122.218 172.096,123.759C172.123,125.321 171.688,126.59 171.412,126.527" style="fill:rgb(208,201,186);fill-rule:nonzero;"/>
            <path d="M159.598,117.714C159.389,117.512 160.122,116.382 161.238,115.197C162.258,113.956 163.278,113.088 163.517,113.257C163.757,113.426 163.093,114.614 162.027,115.907C160.896,117.109 159.809,117.919 159.598,117.714" style="fill:rgb(208,201,186);fill-rule:nonzero;"/>
            <path d="M153.84,119.546C154.1,119.664 153.887,120.623 153.092,121.435C152.708,121.844 152.267,122.132 151.891,122.255C151.524,122.391 151.225,122.328 151.195,122.195C151.13,121.914 151.658,121.445 152.325,120.702C153.01,120.006 153.569,119.414 153.84,119.546" style="fill:rgb(208,201,186);fill-rule:nonzero;"/>
            <path d="M171.897,174.907C172.175,174.904 172.508,176.224 172.506,177.949C172.486,178.814 172.347,179.61 172.118,180.15C171.9,180.692 171.644,180.973 171.516,180.925C171.37,180.873 171.367,180.519 171.385,179.99C171.413,179.461 171.424,178.741 171.445,177.93C171.447,176.304 171.591,174.911 171.897,174.907" style="fill:rgb(208,201,186);fill-rule:nonzero;"/>
            <path d="M166.007,131.399C166.294,131.47 166.293,132.396 166.043,133.461C165.858,134.513 165.467,135.341 165.176,135.315C164.883,135.29 164.806,134.355 165.009,133.226C165.263,132.139 165.726,131.331 166.007,131.399" style="fill:rgb(208,201,186);fill-rule:nonzero;"/>
            <path d="M182.275,171.383C181.972,171.371 181.779,170.108 181.608,168.581C181.411,167.059 181.255,165.807 181.549,165.708C181.809,165.617 182.45,166.82 182.662,168.452C182.844,170.081 182.556,171.397 182.275,171.383" style="fill:rgb(208,201,186);fill-rule:nonzero;"/>
            <path d="M54.119,143.513C54,143.6 53.734,143.492 53.459,143.171C53.176,142.857 52.927,142.313 52.836,141.681C52.747,141.045 52.874,140.468 53.034,140.091C53.209,139.714 53.415,139.526 53.559,139.57C53.868,139.673 53.822,140.552 53.955,141.534C54.071,142.515 54.373,143.312 54.119,143.513" style="fill:rgb(208,201,186);fill-rule:nonzero;"/>
        </g>
        <g id="Red-Hen3" serif:id="Red Hen" transform="matrix(0.466389,0,0,0.466389,189.188,183.853)">
            <path d="M171.335,205.486C127.643,223.014 73.211,211.409 64.385,202.677C41.309,179.85 47.782,142.541 47.782,142.541C48.661,130.292 56.217,136.414 56.217,136.414C52.656,131.138 55.929,127.362 55.929,127.362C60.573,122.054 73.825,132.148 78.862,133.547C87.843,136.044 97.562,134.895 106.281,132.994C124.404,129.04 151.685,118.745 158.541,98.793C158.632,98.525 158.722,98.248 158.809,97.976C166.063,74.695 187.65,82.748 187.65,82.748C190.15,83.895 192.132,85.277 193.702,86.801C196.214,89.246 197.653,92.061 198.402,94.894C199.368,98.527 199.206,102.192 198.726,105.148C198.125,108.86 197.021,111.447 197.021,111.447C196.457,112.775 195.99,114.123 195.608,115.491C193.13,124.317 194.137,133.885 194.415,142.966C195.084,164.781 185.174,199.933 171.335,205.486Z" style="fill:rgb(242,190,183);fill-rule:nonzero;stroke:rgb(211,85,71);stroke-width:1px;"/>
            <path d="M117.368,191.007C117.719,190.816 118.241,191.141 118.159,191.58C116.869,198.429 126.49,198.414 130.992,197.924C137.249,197.246 143.476,194.968 148.727,191.501C160.149,183.959 169.034,171.641 168.165,157.29C166.917,136.687 144.816,125.6 127.096,127.95C119.946,128.899 113.279,131.469 106.281,132.994C99.74,134.42 92.637,135.423 85.704,134.781C85.666,134.916 85.569,135.036 85.389,135.1C76.974,138.126 73.135,150.752 82.342,155.351C82.795,155.577 82.806,156.133 82.371,156.386C76.622,159.72 76.574,168.036 81.09,172.549C85.203,176.658 91.258,177.134 96.746,177.648C97.277,177.697 97.356,178.312 97.041,178.64C89.563,186.428 109.597,195.223 117.368,191.007" style="fill:url(#_Linear5);fill-rule:nonzero;stroke:rgb(212,51,51);stroke-width:1px;"/>
            <path d="M210.903,99.733C210.903,99.733 209.457,100.842 207.358,102.056C204.956,103.446 201.7,104.97 198.726,105.148C199.206,102.192 199.368,98.527 198.402,94.893C201.918,95.467 207.382,96.793 210.903,99.733" style="fill:rgb(255,197,82);fill-rule:nonzero;"/>
            <path d="M193.702,86.801C192.132,85.277 190.15,83.895 187.649,82.748C187.649,82.748 166.063,74.695 158.809,97.976C158.722,98.248 158.632,98.525 158.541,98.793C155.517,97.865 152.075,96.396 150.204,94.852C147.387,92.526 146.675,88.665 147.554,85.266C148.757,80.659 154.4,75.589 159.894,77.146C161.569,77.621 163.674,78.158 164.599,79.856C160.186,71.797 169.036,69.493 169.036,69.493C179.316,66.889 179.658,76.631 179.658,76.631C181.909,73.189 188.169,74.969 188.169,74.969C194.262,77.925 194.355,83.398 193.702,86.801" style="fill:rgb(222,79,63);fill-rule:nonzero;"/>
            <path d="M207.942,110.033C211.929,117.588 200.706,125.148 196.369,117.547C195.998,116.893 195.752,116.204 195.609,115.492C195.99,114.123 196.456,112.776 197.021,111.447C197.021,111.447 198.125,108.86 198.726,105.148C201.7,104.97 204.955,103.447 207.358,102.056C209.876,103.327 212.521,105.054 213.561,107.264C215.117,110.555 209.582,113.14 207.942,110.033" style="fill:rgb(222,79,63);fill-rule:nonzero;"/>
            <path d="M188.026,100.429C187.081,102.211 184.871,102.89 183.089,101.946C181.308,101.001 180.629,98.792 181.574,97.01C182.518,95.228 184.728,94.55 186.509,95.494C188.291,96.438 188.97,98.648 188.026,100.429" style="fill:rgb(34,31,31);fill-rule:nonzero;"/>
            <path d="M187.767,99.793C187.23,100.804 185.975,101.19 184.963,100.654C183.951,100.118 183.565,98.862 184.102,97.85C184.638,96.838 185.893,96.453 186.905,96.989C187.917,97.525 188.303,98.78 187.767,99.793" style="fill:white;fill-rule:nonzero;"/>
            <path d="M182.301,103.47C182.292,103.608 181.835,103.732 181.091,103.635C180.361,103.533 179.318,103.2 178.45,102.351C178.022,101.926 177.708,101.411 177.542,100.901C177.387,100.382 177.378,99.889 177.456,99.504C177.615,98.726 177.963,98.379 178.08,98.43C178.23,98.486 178.154,98.928 178.204,99.548C178.229,99.858 178.308,100.207 178.459,100.562C178.625,100.913 178.868,101.269 179.197,101.597C179.862,102.253 180.683,102.647 181.287,102.911C181.895,103.172 182.312,103.317 182.301,103.47" style="fill:rgb(208,201,186);fill-rule:nonzero;"/>
            <path d="M186.826,104.204C186.821,103.896 188.096,103.724 188.756,102.472C189.116,101.871 189.331,101.213 189.518,100.735C189.7,100.254 189.851,99.94 189.999,99.953C190.143,99.965 190.257,100.306 190.256,100.868C190.247,101.423 190.137,102.221 189.666,103.018C189.43,103.411 189.12,103.749 188.784,103.99C188.438,104.218 188.088,104.361 187.786,104.403C187.179,104.497 186.829,104.339 186.826,104.204" style="fill:rgb(208,201,186);fill-rule:nonzero;"/>
            <path d="M187.143,106.407C187.228,106.508 186.952,106.95 186.218,107.318C185.497,107.699 184.313,107.851 183.135,107.562C181.949,107.287 181.015,106.713 180.42,106.232C179.824,105.741 179.558,105.333 179.647,105.225C179.84,104.974 181.338,106.037 183.375,106.528C184.388,106.771 185.312,106.756 185.969,106.611C186.629,106.478 187.048,106.282 187.143,106.407Z" style="fill:rgb(208,201,186);fill-rule:nonzero;stroke:rgb(255,192,133);stroke-width:0.15px;stroke-linejoin:miter;stroke-miterlimit:10;"/>
            <path d="M64.84,135.573C64.757,135.693 64.355,135.583 63.765,135.301C63.176,135.024 62.391,134.563 61.598,133.927C60.799,133.294 60.205,132.552 59.854,131.981C59.522,131.389 59.415,130.976 59.534,130.901C59.662,130.819 59.987,131.079 60.438,131.51C60.912,131.926 61.521,132.511 62.269,133.104C63.01,133.699 63.7,134.242 64.184,134.679C64.664,135.118 64.924,135.452 64.84,135.573" style="fill:rgb(208,201,186);fill-rule:nonzero;"/>
            <path d="M165.946,114.622C166.043,114.719 165.679,115.337 164.89,116.209C164.49,116.64 163.977,117.137 163.283,117.575C162.931,117.787 162.537,117.994 162.07,118.109C161.615,118.237 161.078,118.273 160.563,118.139C160.284,118.089 160.098,117.982 159.804,117.858C159.648,117.74 159.573,117.663 159.47,117.573C159.372,117.487 159.3,117.375 159.218,117.275C158.912,116.856 158.766,116.377 158.714,115.943C158.626,115.064 158.836,114.337 159.062,113.776C159.537,112.647 160.131,112.148 160.238,112.236C160.361,112.324 160.021,112.948 159.777,114.005C159.659,114.526 159.568,115.17 159.682,115.801C159.744,116.113 159.859,116.409 160.048,116.651C160.103,116.706 160.141,116.774 160.203,116.823L160.353,116.947C160.455,116.978 160.65,117.09 160.808,117.106C161.14,117.195 161.484,117.182 161.822,117.1C162.161,117.032 162.489,116.883 162.796,116.727C163.41,116.4 163.938,115.999 164.381,115.658C165.263,114.962 165.836,114.513 165.946,114.622" style="fill:rgb(208,201,186);fill-rule:nonzero;"/>
            <path d="M175.434,123.802C175.544,123.85 175.439,124.658 174.696,125.767C174.321,126.305 173.739,126.952 172.789,127.266C172.317,127.41 171.768,127.433 171.247,127.3C170.724,127.169 170.241,126.901 169.827,126.56C169,125.867 168.49,124.996 168.167,124.182C167.847,123.36 167.709,122.581 167.675,121.929C167.616,120.616 167.905,119.848 168.036,119.869C168.193,119.887 168.181,120.663 168.418,121.833C168.541,122.417 168.739,123.097 169.066,123.795C169.392,124.488 169.861,125.206 170.5,125.739C171.14,126.277 171.883,126.482 172.527,126.324C173.178,126.161 173.716,125.719 174.112,125.296C174.913,124.434 175.284,123.727 175.434,123.802" style="fill:rgb(208,201,186);fill-rule:nonzero;"/>
            <path d="M187.071,128.978C187.135,128.97 187.246,129.138 187.305,129.475C187.377,129.809 187.384,130.324 187.207,130.937C187.033,131.546 186.625,132.237 185.965,132.778C185.315,133.325 184.426,133.72 183.437,133.799C182.45,133.89 181.451,133.571 180.773,132.984C180.432,132.691 180.194,132.335 180.013,131.995C179.853,131.643 179.752,131.303 179.707,130.991C179.547,129.735 179.892,129.043 180.006,129.062C180.174,129.072 180.123,129.816 180.438,130.82C180.594,131.317 180.892,131.849 181.392,132.227C181.892,132.594 182.596,132.809 183.358,132.74C184.116,132.681 184.826,132.398 185.365,132.008C185.911,131.62 186.284,131.13 186.507,130.668C186.955,129.732 186.902,128.987 187.071,128.978" style="fill:rgb(208,201,186);fill-rule:nonzero;"/>
            <path d="M157.074,122.927C157.156,123.013 156.769,123.609 155.745,124.08C154.745,124.535 153.022,124.692 151.484,123.816C150.724,123.388 150.114,122.778 149.724,122.115C149.57,121.76 149.391,121.439 149.346,121.094C149.314,120.926 149.269,120.767 149.26,120.611C149.262,120.454 149.264,120.303 149.265,120.159C149.355,119.006 149.853,118.475 149.95,118.529C150.112,118.589 149.904,119.217 150.015,120.135C150.032,120.248 150.05,120.366 150.069,120.489C150.095,120.609 150.153,120.728 150.192,120.854C150.252,121.111 150.43,121.344 150.559,121.605C150.903,122.09 151.392,122.545 152.001,122.889C153.232,123.59 154.594,123.582 155.504,123.369C156.426,123.145 156.97,122.795 157.074,122.927Z" style="fill:rgb(208,201,186);fill-rule:nonzero;stroke:rgb(255,192,133);stroke-width:0.15px;stroke-linejoin:miter;stroke-miterlimit:10;"/>
            <path d="M169.567,133.706C169.678,133.738 169.725,134.477 169.134,135.566C168.977,135.831 168.766,136.119 168.449,136.365C168.144,136.618 167.705,136.809 167.233,136.831C166.268,136.877 165.402,136.348 164.733,135.72C163.396,134.408 162.804,132.819 162.61,131.665C162.415,130.491 162.652,129.761 162.784,129.781C162.941,129.791 162.984,130.476 163.338,131.483C163.684,132.477 164.342,133.856 165.465,134.951C166.023,135.48 166.661,135.848 167.203,135.854C167.741,135.877 168.199,135.521 168.52,135.136C169.16,134.339 169.409,133.647 169.567,133.706" style="fill:rgb(208,201,186);fill-rule:nonzero;"/>
            <path d="M183.782,140.579C183.899,140.556 184.242,141.229 184.087,142.449C183.99,143.042 183.718,143.797 183.083,144.382C182.469,144.979 181.54,145.351 180.58,145.357C179.614,145.378 178.729,145.061 178.048,144.624C177.368,144.175 176.883,143.615 176.582,143.1C175.987,142.05 176.001,141.298 176.124,141.271C176.278,141.222 176.535,141.874 177.195,142.667C177.527,143.059 177.981,143.465 178.551,143.786C179.126,144.096 179.827,144.313 180.561,144.296C181.294,144.29 181.963,144.044 182.433,143.652C182.92,143.27 183.191,142.743 183.358,142.274C183.664,141.31 183.618,140.593 183.782,140.579" style="fill:rgb(208,201,186);fill-rule:nonzero;"/>
            <path d="M191.284,150.894C191.355,150.911 191.388,151.045 191.384,151.286C191.397,151.53 191.302,151.868 191.122,152.281C190.901,152.665 190.534,153.158 189.899,153.389C189.277,153.62 188.536,153.566 187.894,153.311C187.242,153.06 186.723,152.661 186.337,152.236C185.937,151.823 185.679,151.37 185.503,150.984C185.168,150.191 185.209,149.648 185.337,149.62C185.491,149.581 185.71,150.021 186.152,150.608C186.383,150.896 186.656,151.234 187.019,151.535C187.367,151.85 187.801,152.141 188.277,152.322C188.752,152.508 189.213,152.553 189.591,152.461C189.975,152.372 190.254,152.108 190.495,151.868C190.932,151.331 191.122,150.85 191.284,150.894" style="fill:rgb(208,201,186);fill-rule:nonzero;"/>
            <path d="M179.992,154.167C180.105,154.218 179.989,154.908 179.377,155.871C179.201,156.092 179.02,156.351 178.782,156.595C178.527,156.823 178.27,157.091 177.919,157.282C177.261,157.7 176.35,157.989 175.402,157.853C174.451,157.733 173.658,157.228 173.121,156.674C172.821,156.416 172.639,156.094 172.429,155.828C172.255,155.539 172.119,155.256 171.991,155.005C171.573,153.95 171.573,153.254 171.695,153.221C171.853,153.175 172.116,153.791 172.654,154.654C172.803,154.854 172.966,155.075 173.141,155.312C173.349,155.512 173.525,155.773 173.784,155.956C174.256,156.374 174.864,156.718 175.545,156.802C176.225,156.898 176.886,156.722 177.434,156.433C177.722,156.31 177.952,156.106 178.19,155.945C178.414,155.766 178.601,155.564 178.793,155.4C179.48,154.658 179.844,154.093 179.992,154.167" style="fill:rgb(208,201,186);fill-rule:nonzero;"/>
            <path d="M186.124,167.874C186.245,167.876 186.428,168.463 186.209,169.441C186.065,169.911 185.849,170.506 185.345,170.998C184.866,171.496 184.154,171.897 183.353,172.004C182.55,172.127 181.784,171.941 181.183,171.653C180.564,171.38 180.121,170.965 179.787,170.611C179.154,169.854 179.017,169.259 179.126,169.196C179.264,169.11 179.633,169.546 180.3,170.064C180.649,170.301 181.056,170.585 181.562,170.752C182.053,170.934 182.631,171.045 183.208,170.954C183.785,170.873 184.284,170.62 184.668,170.292C185.07,169.975 185.3,169.543 185.503,169.186C185.855,168.433 185.958,167.863 186.124,167.874" style="fill:rgb(208,201,186);fill-rule:nonzero;"/>
            <path d="M176.035,178.446C176.103,178.471 176.106,178.643 176.046,178.942C176.009,179.089 175.986,179.279 175.896,179.476C175.806,179.674 175.696,179.899 175.568,180.147C175.416,180.381 175.213,180.623 174.992,180.88C174.719,181.087 174.457,181.366 174.077,181.507C173.367,181.862 172.42,181.942 171.568,181.683C169.848,181.147 168.8,179.891 168.286,178.946C167.764,177.976 167.736,177.281 167.862,177.247C168.015,177.197 168.295,177.772 168.911,178.531C169.064,178.722 169.232,178.926 169.441,179.122C169.63,179.335 169.869,179.52 170.108,179.725C170.608,180.103 171.197,180.466 171.859,180.663C173.201,181.07 174.357,180.438 174.964,179.701C175.109,179.512 175.248,179.341 175.375,179.192C175.504,179.042 175.578,178.886 175.669,178.774C175.838,178.542 175.966,178.421 176.035,178.446" style="fill:rgb(208,201,186);fill-rule:nonzero;"/>
            <path d="M188.142,151.939C187.853,151.903 187.656,150.938 187.707,149.785C187.717,148.593 187.951,147.627 188.244,147.637C188.536,147.645 188.778,148.605 188.769,149.793C188.715,151.014 188.434,151.975 188.142,151.939" style="fill:rgb(208,201,186);fill-rule:nonzero;"/>
            <path d="M175.066,157.407C174.775,157.419 174.447,156.479 174.339,155.308C174.175,154.13 174.264,153.136 174.553,153.09C174.842,153.044 175.225,153.974 175.392,155.175C175.506,156.396 175.359,157.395 175.066,157.407" style="fill:rgb(208,201,186);fill-rule:nonzero;"/>
            <path d="M179.796,143.696C179.499,143.66 179.38,142.615 179.397,141.354C179.403,140.096 179.491,139.079 179.786,139.022C180.066,138.965 180.466,140.027 180.459,141.362C180.441,142.69 180.081,143.732 179.796,143.696" style="fill:rgb(208,201,186);fill-rule:nonzero;"/>
            <path d="M182.971,131.713C182.674,131.683 182.57,130.659 182.599,129.486C182.596,128.329 182.535,127.388 182.833,127.281C183.085,127.18 183.656,128.163 183.661,129.488C183.628,130.781 183.255,131.742 182.971,131.713" style="fill:rgb(208,201,186);fill-rule:nonzero;"/>
            <path d="M171.412,126.527C171.113,126.463 171.059,125.271 171.035,123.77C171,122.25 171.251,120.981 171.54,120.996C171.837,121.011 172.061,122.218 172.096,123.759C172.123,125.321 171.688,126.59 171.412,126.527" style="fill:rgb(208,201,186);fill-rule:nonzero;"/>
            <path d="M159.598,117.714C159.389,117.512 160.122,116.382 161.238,115.197C162.258,113.956 163.278,113.088 163.517,113.257C163.757,113.426 163.093,114.614 162.027,115.907C160.896,117.109 159.809,117.919 159.598,117.714" style="fill:rgb(208,201,186);fill-rule:nonzero;"/>
            <path d="M153.84,119.546C154.1,119.664 153.887,120.623 153.092,121.435C152.708,121.844 152.267,122.132 151.891,122.255C151.524,122.391 151.225,122.328 151.195,122.195C151.13,121.914 151.658,121.445 152.325,120.702C153.01,120.006 153.569,119.414 153.84,119.546" style="fill:rgb(208,201,186);fill-rule:nonzero;"/>
            <path d="M171.897,174.907C172.175,174.904 172.508,176.224 172.506,177.949C172.486,178.814 172.347,179.61 172.118,180.15C171.9,180.692 171.644,180.973 171.516,180.925C171.37,180.873 171.367,180.519 171.385,179.99C171.413,179.461 171.424,178.741 171.445,177.93C171.447,176.304 171.591,174.911 171.897,174.907" style="fill:rgb(208,201,186);fill-rule:nonzero;"/>
            <path d="M166.007,131.399C166.294,131.47 166.293,132.396 166.043,133.461C165.858,134.513 165.467,135.341 165.176,135.315C164.883,135.29 164.806,134.355 165.009,133.226C165.263,132.139 165.726,131.331 166.007,131.399" style="fill:rgb(208,201,186);fill-rule:nonzero;"/>
            <path d="M182.275,171.383C181.972,171.371 181.779,170.108 181.608,168.581C181.411,167.059 181.255,165.807 181.549,165.708C181.809,165.617 182.45,166.82 182.662,168.452C182.844,170.081 182.556,171.397 182.275,171.383" style="fill:rgb(208,201,186);fill-rule:nonzero;"/>
            <path d="M54.119,143.513C54,143.6 53.734,143.492 53.459,143.171C53.176,142.857 52.927,142.313 52.836,141.681C52.747,141.045 52.874,140.468 53.034,140.091C53.209,139.714 53.415,139.526 53.559,139.57C53.868,139.673 53.822,140.552 53.955,141.534C54.071,142.515 54.373,143.312 54.119,143.513" style="fill:rgb(208,201,186);fill-rule:nonzero;"/>
        </g>
    </g>
    <defs>
        <linearGradient id="_Linear2" x1="0" y1="0" x2="1" y2="0" gradientUnits="userSpaceOnUse" gradientTransform="matrix(-53.2974,28.9058,-28.9058,-53.2974,138.709,148.003)"><stop offset="0" style="stop-color:rgb(245,194,194);stop-opacity:1"/><stop offset="1" style="stop-color:rgb(222,147,147);stop-opacity:1"/></linearGradient>
        <linearGradient id="_Linear3" x1="0" y1="0" x2="1" y2="0" gradientUnits="userSpaceOnUse" gradientTransform="matrix(-53.2974,28.9058,-28.9058,-53.2974,138.709,148.003)"><stop offset="0" style="stop-color:rgb(245,194,194);stop-opacity:1"/><stop offset="1" style="stop-color:rgb(222,147,147);stop-opacity:1"/></linearGradient>
        <linearGradient id="_Linear4" x1="0" y1="0" x2="1" y2="0" gradientUnits="userSpaceOnUse" gradientTransform="matrix(-53.2974,28.9058,-28.9058,-53.2974,138.709,148.003)"><stop offset="0" style="stop-color:rgb(245,194,194);stop-opacity:1"/><stop offset="1" style="stop-color:rgb(222,147,147);stop-opacity:1"/></linearGradient>
        <linearGradient id="_Linear5" x1="0" y1="0" x2="1" y2="0" gradientUnits="userSpaceOnUse" gradientTransform="matrix(-53.2974,28.9058,-28.9058,-53.2974,138.709,148.003)"><stop offset="0" style="stop-color:rgb(245,194,194);stop-opacity:1"/><stop offset="1" style="stop-color:rgb(222,147,147);stop-opacity:1"/></linearGradient>
    </defs>
</svg>
