<?xml version="1.0" encoding="UTF-8" standalone="no"?>
<!DOCTYPE svg PUBLIC "-//W3C//DTD SVG 1.1//EN" "http://www.w3.org/Graphics/SVG/1.1/DTD/svg11.dtd">
<svg width="100%" height="100%" viewBox="0 0 256 256" version="1.1" xmlns="http://www.w3.org/2000/svg" xmlns:xlink="http://www.w3.org/1999/xlink" xml:space="preserve" xmlns:serif="http://www.serif.com/" style="fill-rule:evenodd;clip-rule:evenodd;stroke-linejoin:round;stroke-miterlimit:1.41421;">
    <g transform="matrix(-0.359736,-0.0376111,0.0376111,-0.359736,83.3325,94.9988)">
        <path d="M118.712,52.06C118.712,52.06 85.132,100.92 85.132,121.861C85.132,140.394 100.178,155.44 118.712,155.44C137.245,155.44 152.292,140.394 152.292,121.861C152.292,100.92 118.712,52.06 118.712,52.06Z" style="fill:url(#_Radial1);"/>
    </g>
    <g transform="matrix(0.33893,0.126297,-0.126297,0.33893,103.252,120.962)">
        <path d="M118.712,52.06C118.712,52.06 85.132,100.92 85.132,121.861C85.132,140.394 100.178,155.44 118.712,155.44C137.245,155.44 152.292,140.394 152.292,121.861C152.292,100.92 118.712,52.06 118.712,52.06Z" style="fill:url(#_Radial2);"/>
    </g>
    <g transform="matrix(-0.169815,0.319355,-0.319355,-0.169815,235.675,190.97)">
        <path d="M118.712,52.06C118.712,52.06 85.132,100.92 85.132,121.861C85.132,140.394 100.178,155.44 118.712,155.44C137.245,155.44 152.292,140.394 152.292,121.861C152.292,100.92 118.712,52.06 118.712,52.06Z" style="fill:url(#_Radial3);"/>
    </g>
    <g transform="matrix(0.045877,-0.358776,0.358776,0.045877,51.7701,270.734)">
        <path d="M118.712,52.06C118.712,52.06 85.132,100.92 85.132,121.861C85.132,140.394 100.178,155.44 118.712,155.44C137.245,155.44 152.292,140.394 152.292,121.861C152.292,100.92 118.712,52.06 118.712,52.06Z" style="fill:url(#_Radial4);"/>
    </g>
    <g transform="matrix(0.329828,-0.148454,0.148454,0.329828,128.378,95.3922)">
        <path d="M118.712,52.06C118.712,52.06 85.132,100.92 85.132,121.861C85.132,140.394 100.178,155.44 118.712,155.44C137.245,155.44 152.292,140.394 152.292,121.861C152.292,100.92 118.712,52.06 118.712,52.06Z" style="fill:url(#_Radial5);"/>
    </g>
    <g transform="matrix(0.297886,0.205155,-0.205155,0.297886,120.888,-23.2031)">
        <path d="M118.712,52.06C118.712,52.06 85.132,100.92 85.132,121.861C85.132,140.394 100.178,155.44 118.712,155.44C137.245,155.44 152.292,140.394 152.292,121.861C152.292,100.92 118.712,52.06 118.712,52.06Z" style="fill:url(#_Radial6);"/>
    </g>
    <g transform="matrix(0.214237,-0.291423,0.291423,0.214237,167.977,73.0387)">
        <path d="M118.712,52.06C118.712,52.06 85.132,100.92 85.132,121.861C85.132,140.394 100.178,155.44 118.712,155.44C137.245,155.44 152.292,140.394 152.292,121.861C152.292,100.92 118.712,52.06 118.712,52.06Z" style="fill:url(#_Radial7);"/>
    </g>
    <g transform="matrix(-0.252675,-0.258806,0.258806,-0.252675,230.93,216.071)">
        <path d="M118.712,52.06C118.712,52.06 85.132,100.92 85.132,121.861C85.132,140.394 100.178,155.44 118.712,155.44C137.245,155.44 152.292,140.394 152.292,121.861C152.292,100.92 118.712,52.06 118.712,52.06Z" style="fill:url(#_Radial8);"/>
    </g>
    <g transform="matrix(0.287055,-0.220055,0.220055,0.287055,40.0468,95.8474)">
        <path d="M118.712,52.06C118.712,52.06 85.132,100.92 85.132,121.861C85.132,140.394 100.178,155.44 118.712,155.44C137.245,155.44 152.292,140.394 152.292,121.861C152.292,100.92 118.712,52.06 118.712,52.06Z" style="fill:url(#_Radial9);"/>
    </g>
    <g transform="matrix(0.210543,0.294103,-0.294103,0.210543,51.8763,126.32)">
        <path d="M118.712,52.06C118.712,52.06 85.132,100.92 85.132,121.861C85.132,140.394 100.178,155.44 118.712,155.44C137.245,155.44 152.292,140.394 152.292,121.861C152.292,100.92 118.712,52.06 118.712,52.06Z" style="fill:url(#_Radial10);"/>
    </g>
    <defs>
        <radialGradient id="_Radial1" cx="0" cy="0" r="1" gradientUnits="userSpaceOnUse" gradientTransform="matrix(37.7481,5.53918,-10.3602,70.6021,107.064,122.461)"><stop offset="0" style="stop-color:rgb(255,215,215);stop-opacity:1"/><stop offset="1" style="stop-color:rgb(167,86,86);stop-opacity:1"/></radialGradient>
        <radialGradient id="_Radial2" cx="0" cy="0" r="1" gradientUnits="userSpaceOnUse" gradientTransform="matrix(37.7481,5.53918,-10.3602,70.6021,107.064,122.461)"><stop offset="0" style="stop-color:rgb(255,215,215);stop-opacity:1"/><stop offset="1" style="stop-color:rgb(167,86,86);stop-opacity:1"/></radialGradient>
        <radialGradient id="_Radial3" cx="0" cy="0" r="1" gradientUnits="userSpaceOnUse" gradientTransform="matrix(37.7481,5.53918,-10.3602,70.6021,107.064,122.461)"><stop offset="0" style="stop-color:rgb(255,215,215);stop-opacity:1"/><stop offset="1" style="stop-color:rgb(167,86,86);stop-opacity:1"/></radialGradient>
        <radialGradient id="_Radial4" cx="0" cy="0" r="1" gradientUnits="userSpaceOnUse" gradientTransform="matrix(37.7481,5.53918,-10.3602,70.6021,107.064,122.461)"><stop offset="0" style="stop-color:rgb(255,215,215);stop-opacity:1"/><stop offset="1" style="stop-color:rgb(167,86,86);stop-opacity:1"/></radialGradient>
        <radialGradient id="_Radial5" cx="0" cy="0" r="1" gradientUnits="userSpaceOnUse" gradientTransform="matrix(37.7481,5.53918,-10.3602,70.6021,107.064,122.461)"><stop offset="0" style="stop-color:rgb(255,215,215);stop-opacity:1"/><stop offset="1" style="stop-color:rgb(167,86,86);stop-opacity:1"/></radialGradient>
        <radialGradient id="_Radial6" cx="0" cy="0" r="1" gradientUnits="userSpaceOnUse" gradientTransform="matrix(37.7481,5.53918,-10.3602,70.6021,107.064,122.461)"><stop offset="0" style="stop-color:rgb(255,215,215);stop-opacity:1"/><stop offset="1" style="stop-color:rgb(167,86,86);stop-opacity:1"/></radialGradient>
        <radialGradient id="_Radial7" cx="0" cy="0" r="1" gradientUnits="userSpaceOnUse" gradientTransform="matrix(37.7481,5.53918,-10.3602,70.6021,107.064,122.461)"><stop offset="0" style="stop-color:rgb(255,215,215);stop-opacity:1"/><stop offset="1" style="stop-color:rgb(167,86,86);stop-opacity:1"/></radialGradient>
        <radialGradient id="_Radial8" cx="0" cy="0" r="1" gradientUnits="userSpaceOnUse" gradientTransform="matrix(37.7481,5.53918,-10.3602,70.6021,107.064,122.461)"><stop offset="0" style="stop-color:rgb(255,215,215);stop-opacity:1"/><stop offset="1" style="stop-color:rgb(167,86,86);stop-opacity:1"/></radialGradient>
        <radialGradient id="_Radial9" cx="0" cy="0" r="1" gradientUnits="userSpaceOnUse" gradientTransform="matrix(37.7481,5.53918,-10.3602,70.6021,107.064,122.461)"><stop offset="0" style="stop-color:rgb(255,215,215);stop-opacity:1"/><stop offset="1" style="stop-color:rgb(167,86,86);stop-opacity:1"/></radialGradient>
        <radialGradient id="_Radial10" cx="0" cy="0" r="1" gradientUnits="userSpaceOnUse" gradientTransform="matrix(37.7481,5.53918,-10.3602,70.6021,107.064,122.461)"><stop offset="0" style="stop-color:rgb(255,215,215);stop-opacity:1"/><stop offset="1" style="stop-color:rgb(167,86,86);stop-opacity:1"/></radialGradient>
    </defs>
</svg>
